<?xml version="1.0" encoding="utf-8"?>
<!-- Generator: Adobe Illustrator 25.0.0, SVG Export Plug-In . SVG Version: 6.00 Build 0)  -->
<svg version="1.1" id="Layer_1" xmlns="http://www.w3.org/2000/svg" xmlns:xlink="http://www.w3.org/1999/xlink" x="0px" y="0px"
	 viewBox="0 0 51 50" style="enable-background:new 0 0 51 50;" xml:space="preserve">
<style type="text/css">
	.st0{fill:#E6C773;}
</style>
<ellipse class="st0" cx="25.5" cy="25" rx="25.4" ry="25"/>
<g>
	<path d="M17.4,45.5c-1.1-0.6-1.3-1.1-1-2.7c2.7,0,5.4,0,8.2,0c0.4,1.4,0.1,2.2-1.1,2.7C21.5,45.5,19.5,45.5,17.4,45.5z"/>
	<path d="M16,34.2c-0.6,0-1.2,0-1.7,0c-0.1,0-0.3-0.2-0.4-0.3c-0.5-2-1.7-3.5-3.1-4.8C2.8,21.7,5.7,8.5,16.2,5.2
		c8.5-2.7,17.4,2.9,18.5,11.6c0.6,4.9-1,9.1-4.7,12.4c-1.4,1.3-2.5,2.7-3,4.6c0,0.1-0.2,0.3-0.4,0.4c-0.5,0-1.1,0-1.7,0
		c0-0.3,0-0.5,0-0.7c0-3,0-5.9,0-8.9c0-0.5,0.1-0.8,0.5-1.1c4.3-3.6,3.3-10.6-2-12.8c-1.1-0.4-1.4-0.2-1.4,0.9c0,1.8,0,3.6,0,5.3
		c0,1.3-1.1,2.1-2.2,1.6c-0.7-0.3-1-0.8-1-1.6c0-1.8,0-3.7,0-5.5c0-0.9-0.4-1.2-1.2-0.8c-5.4,2.1-6.6,9.3-2.1,13
		c0.3,0.3,0.4,0.5,0.4,0.9c0,3,0,6,0,9C16,33.7,16,33.9,16,34.2z"/>
	<path d="M23.5,12.3c1,0.5,1.6,1.1,2.2,1.9c2,2.8,1.4,6.6-1.4,8.6c-0.5,0.3-0.6,0.7-0.6,1.3c0,3.2,0,6.3,0,9.5c0,0.2,0,0.4,0,0.6
		c-2.1,0-4.1,0-6.2,0c0-0.2,0-0.4,0-0.7c0-3.1,0-6.3,0-9.4c0-0.6-0.2-1-0.7-1.3c-3.5-2.5-3.4-7.7,0.2-10.2c0.2-0.1,0.4-0.2,0.6-0.4
		c0,1.6,0,3.1,0,4.6c0,0.4,0,0.7,0.1,1.1c0.3,1.4,1.6,2.3,3,2.2c1.4-0.1,2.6-1.1,2.7-2.5c0.1-1.5,0.1-3.1,0.1-4.6
		C23.5,12.8,23.5,12.6,23.5,12.3z"/>
	<path d="M44.8,28.8c0,3.4-2.6,6.1-6.1,6.3c-3.1,0.2-6.2-2.2-6.7-5.4c0-0.3,0.1-0.7,0.3-0.9c1.4-1.6,2.4-3.4,3.1-5.3
		c0.1-0.3,0.4-0.5,0.6-0.6C40.2,21.2,44.8,24.3,44.8,28.8z M37.4,30c-0.7-0.7-1.3-1.3-1.9-2c-0.3-0.3-0.7-0.4-1-0.1
		c-0.4,0.4-0.2,0.7,0.1,1c0.8,0.8,1.5,1.5,2.3,2.3c0.4,0.4,0.7,0.4,1.2,0c0.7-0.7,1.4-1.4,2.1-2c0.7-0.7,1.4-1.4,2.1-2.1
		c0.5-0.5,0.3-1.1-0.2-1.2c-0.3,0-0.6,0.1-0.8,0.3C39.9,27.5,38.7,28.7,37.4,30z"/>
	<path d="M20.5,37.8c-2.3,0-4.5,0-6.8,0c-1,0-1.6-0.8-1.1-1.6c0.3-0.5,0.7-0.6,1.2-0.6c1.8,0,3.5,0,5.3,0c2.6,0,5.2,0,7.7,0
		c0.2,0,0.3,0,0.5,0c0.7,0.1,1.1,0.5,1.1,1.1c0,0.6-0.5,1.1-1.2,1.1C25.1,37.8,22.8,37.8,20.5,37.8z"/>
	<path d="M20.5,39.1c1.9,0,3.8,0,5.7,0c0.9,0,1.4,0.4,1.4,1.1c0,0.7-0.5,1.1-1.4,1.1c-3.8,0-7.6,0-11.4,0c-0.8,0-1.4-0.5-1.4-1.1
		c0-0.7,0.5-1.1,1.4-1.1C16.7,39.1,18.6,39.1,20.5,39.1z"/>
</g>
</svg>
