<svg width="40" height="41" viewBox="0 0 40 41" fill="none" xmlns="http://www.w3.org/2000/svg">
<g clip-path="url(#clip0_185_86)">
<path d="M11.9198 41C10.8357 40.412 10.6334 39.8865 10.8926 38.2913C13.6108 38.2913 16.3322 38.2913 19.0598 38.2913C19.4423 39.68 19.1294 40.4839 17.9947 41C15.9687 41 13.9458 41 11.9198 41Z" fill="black"/>
<path d="M10.5228 29.6834C9.90646 29.6834 9.3723 29.7053 8.8413 29.6678C8.71171 29.6584 8.50943 29.4895 8.48098 29.3612C8.0132 27.3782 6.82478 25.8893 5.33925 24.5381C-2.73001 17.2095 0.228404 3.98804 10.6555 0.678765C19.1072 -2.00494 28.0236 3.57829 29.1266 12.3019C29.743 17.2033 28.1468 21.3602 24.4709 24.6976C23.055 25.9832 21.9645 27.4314 21.5189 29.3112C21.4841 29.4582 21.2723 29.6553 21.1301 29.6678C20.6023 29.7116 20.0713 29.6834 19.4739 29.6834C19.4739 29.4269 19.4739 29.2236 19.4739 29.0234C19.4739 26.052 19.4834 23.0836 19.4644 20.1122C19.4612 19.6336 19.6035 19.3302 19.9796 19.0174C24.3256 15.3828 23.2351 8.41709 17.9978 6.23697C16.9358 5.79282 16.5882 6.01489 16.5882 7.1378C16.5882 8.91442 16.604 10.6942 16.5818 12.4708C16.566 13.7595 15.4882 14.5446 14.3978 14.0816C13.7088 13.7908 13.4053 13.2403 13.4085 12.5021C13.4148 10.666 13.4117 8.8331 13.4085 6.99704C13.4085 6.09309 13.0229 5.83348 12.179 6.15252C6.74892 8.21378 5.58578 15.4517 10.1056 19.105C10.4216 19.3615 10.5354 19.6117 10.5354 20.0058C10.5196 23.0148 10.526 26.0207 10.526 29.0297C10.5228 29.2236 10.5228 29.4082 10.5228 29.6834Z" fill="black"/>
<path d="M17.9599 7.75082C18.9176 8.22939 19.6003 8.86747 20.1534 9.64631C22.1352 12.4395 21.5189 16.2461 18.728 18.2698C18.2539 18.6139 18.0832 18.9736 18.0863 19.5429C18.1085 22.6989 18.099 25.858 18.099 29.014C18.099 29.2173 18.099 29.4206 18.099 29.6552C16.0193 29.6552 14.0027 29.6552 11.8977 29.6552C11.8977 29.4332 11.8977 29.2142 11.8977 28.9984C11.8977 25.8611 11.8851 22.7208 11.9072 19.5835C11.9103 18.9955 11.727 18.617 11.2371 18.2604C7.74455 15.7269 7.84569 10.5127 11.4173 8.08863C11.5848 7.97603 11.7681 7.88532 12.0273 7.73206C12.0273 9.32726 12.021 10.8286 12.0336 12.3331C12.0368 12.6897 12.0557 13.0557 12.1411 13.3966C12.4888 14.751 13.7657 15.6487 15.1785 15.5673C16.5534 15.486 17.7734 14.457 17.8777 13.0807C17.9947 11.5574 17.9378 10.0217 17.9536 8.49213C17.9631 8.27318 17.9599 8.05423 17.9599 7.75082Z" fill="black"/>
<path d="M39.2535 24.3004C39.2377 27.6816 36.6523 30.3715 33.1692 30.628C30.0275 30.8626 27.0027 28.4417 26.5191 25.2731C26.4748 24.9854 26.5823 24.585 26.7719 24.3629C28.1374 22.774 29.1646 21.0067 29.8536 19.0362C29.9421 18.7797 30.2139 18.5013 30.47 18.3981C34.6579 16.7028 39.2725 19.8119 39.2535 24.3004ZM31.8638 25.5421C31.1969 24.8603 30.5774 24.2222 29.9548 23.5872C29.6292 23.2557 29.2562 23.1587 28.9054 23.5184C28.5546 23.875 28.6715 24.2378 28.9971 24.5631C29.7651 25.3232 30.53 26.0926 31.3075 26.8433C31.7469 27.2687 32.044 27.2656 32.4865 26.8371C33.1818 26.1646 33.8645 25.4764 34.5536 24.7977C35.2679 24.0908 35.9917 23.3902 36.6965 22.6708C37.1485 22.211 37.0347 21.5447 36.4784 21.4884C36.2098 21.4603 35.8463 21.6198 35.644 21.8168C34.3955 23.0086 33.1787 24.2347 31.8638 25.5421Z" fill="black"/>
<path d="M14.9952 33.2836C12.7448 33.2836 10.4944 33.2899 8.24078 33.2805C7.24832 33.2774 6.67307 32.4329 7.10609 31.6478C7.36843 31.1755 7.8046 31.0472 8.31348 31.0472C10.0866 31.0503 11.8629 31.0472 13.6361 31.0472C16.2121 31.0472 18.788 31.0472 21.3608 31.0472C21.5315 31.0472 21.7053 31.041 21.876 31.0535C22.5493 31.1129 23.017 31.579 23.0107 32.1764C23.0044 32.7957 22.5018 33.2743 21.8033 33.2774C19.5371 33.2899 17.2646 33.2836 14.9952 33.2836Z" fill="black"/>
<path d="M15.0173 34.6474C16.9074 34.6474 18.7943 34.6443 20.6844 34.6474C21.5473 34.6474 22.0372 35.0603 22.0372 35.764C22.0372 36.4647 21.5441 36.8901 20.6844 36.8901C16.8884 36.8963 13.0893 36.8963 9.29329 36.8901C8.45887 36.8901 7.92471 36.4334 7.92471 35.764C7.92471 35.0915 8.45887 34.6505 9.29329 34.6474C11.2024 34.6443 13.1083 34.6474 15.0173 34.6474Z" fill="black"/>
</g>
<defs>
<clipPath id="clip0_185_86">
<rect width="38.5352" height="41" fill="white" transform="translate(0.718323)"/>
</clipPath>
</defs>
</svg>
