<svg width="38" height="36" viewBox="0 0 38 36" fill="none" xmlns="http://www.w3.org/2000/svg">
<g clip-path="url(#clip0_187_116)">
<path d="M0.661987 16.3938C0.978902 15.6583 1.54317 15.4106 2.34318 15.4183C5.53552 15.4449 8.72786 15.4297 11.9202 15.4297C12.0671 15.4297 12.2139 15.4297 12.3801 15.4297C12.3801 17.6818 12.3801 19.8997 12.3801 22.209C12.0091 21.8432 11.6806 21.5231 11.3521 21.1991C11.2091 21.0581 11.0699 20.9095 10.9192 20.7762C10.6062 20.5056 10.2274 20.5132 9.97233 20.78C9.72884 21.0391 9.72884 21.3935 9.99938 21.6831C10.3356 22.0337 10.6873 22.369 11.0352 22.7082C11.526 23.1922 12.0129 23.6761 12.5038 24.1563C12.8903 24.5297 13.211 24.5335 13.5975 24.1563C14.4169 23.356 15.2362 22.552 16.0478 21.7403C16.3841 21.4049 16.3956 21.02 16.1058 20.7495C15.8275 20.4903 15.4565 20.5094 15.1319 20.8295C14.6797 21.2677 14.2391 21.7212 13.7328 22.2242C13.7328 19.9111 13.7328 17.6895 13.7328 15.4449C17.1879 15.4449 20.6354 15.4449 24.1098 15.4449C24.1098 17.6704 24.1098 19.8959 24.1098 22.2319C23.6229 21.7403 23.2016 21.2944 22.7533 20.8752C22.6064 20.738 22.3745 20.5742 22.2045 20.597C21.988 20.6275 21.7368 20.7914 21.6016 20.9705C21.4199 21.2144 21.5436 21.4888 21.7484 21.6945C22.2624 22.209 22.7842 22.7196 23.3021 23.2303C23.6267 23.5504 23.9475 23.8819 24.2837 24.1944C24.6238 24.5107 24.9524 24.5183 25.2886 24.1982C26.1311 23.3827 26.9659 22.5558 27.7969 21.7288C28.1138 21.4087 28.1292 21.0391 27.8548 20.7685C27.5843 20.498 27.2017 20.5056 26.8809 20.8181C26.4248 21.2601 25.9843 21.7136 25.478 22.228C25.478 19.9225 25.478 17.7009 25.478 15.4297C25.6094 15.4297 25.7524 15.4297 25.8954 15.4297C29.1418 15.4297 32.3883 15.4297 35.6347 15.4297C36.9681 15.4297 37.5555 16.4052 36.8985 17.537C35.2366 20.4065 33.567 23.2684 31.9167 26.1455C31.5689 26.7514 31.0974 27.0067 30.3979 27.0067C23.1707 26.9953 15.9473 26.9953 8.72013 27.0067C8.09016 27.0067 7.64571 26.7781 7.28242 26.275C5.2186 23.4017 3.13547 20.5399 1.06393 17.6742C0.917065 17.4722 0.797256 17.2512 0.661987 17.034C0.661987 16.8206 0.661987 16.6072 0.661987 16.3938Z" fill="black"/>
<path d="M10.6873 36C10.5868 35.9657 10.4825 35.9314 10.382 35.9047C9.2728 35.5846 8.50756 34.6091 8.4921 33.4621C8.48051 32.6466 8.48824 31.8273 8.48824 31.0118C8.4921 29.377 9.58971 28.2871 11.24 28.2871C14.3357 28.2833 17.4314 28.2871 20.531 28.2871C22.5562 28.2871 24.5775 28.2833 26.6026 28.2871C28.2568 28.2909 29.3505 29.3732 29.3544 31.0118C29.3582 31.7472 29.3544 32.4827 29.3544 33.222C29.3505 34.6663 28.6664 35.558 27.2635 35.9467C27.2249 35.9581 27.1901 35.981 27.1553 36C21.6634 36 16.1754 36 10.6873 36ZM14.3859 32.7838C15.186 32.7838 15.9898 32.7838 16.7899 32.7838C17.3077 32.7838 17.6053 32.5513 17.6131 32.1512C17.6208 31.7511 17.3193 31.4995 16.813 31.4995C15.1705 31.4957 13.5241 31.4957 11.8815 31.4995C11.3946 31.4995 11.1047 31.7396 11.097 32.1283C11.0893 32.5284 11.3907 32.7799 11.897 32.7838C12.7279 32.7876 13.555 32.7838 14.3859 32.7838ZM21.5243 30.8593C20.8131 30.8593 20.2295 31.4348 20.2257 32.1359C20.2218 32.8333 20.8015 33.4202 21.5088 33.4278C22.2354 33.4354 22.8344 32.8447 22.8306 32.1321C22.8267 31.4309 22.2354 30.8555 21.5243 30.8593ZM25.4355 33.4278C26.1427 33.4316 26.734 32.8562 26.7456 32.1588C26.7534 31.4614 26.1775 30.8708 25.4702 30.8593C24.7398 30.8441 24.1407 31.4271 24.1407 32.1474C24.1407 32.8447 24.7282 33.424 25.4355 33.4278Z" fill="black"/>
<path d="M17.6169 14.1264C12.3801 14.1264 7.19739 14.1264 1.98762 14.1264C1.98762 11.5694 1.98762 9.03144 1.98762 6.42871C2.12289 6.42871 2.26588 6.42871 2.40502 6.42871C3.9007 6.42871 5.39252 6.42871 6.8882 6.42871C8.02059 6.42871 8.48437 5.96761 8.48437 4.83582C8.48437 3.24293 8.48437 1.65005 8.48437 0C8.64669 0 8.78969 0 8.93269 0C11.325 0 13.7135 0 16.1058 0C17.1029 0 17.6131 0.499206 17.6131 1.47856C17.6131 5.56367 17.6131 9.64878 17.6131 13.7339C17.6169 13.852 17.6169 13.9701 17.6169 14.1264ZM9.79068 9.00095C9.57425 9.00095 9.35782 9.00095 9.13753 9.00095C7.86214 9.00095 6.58288 9.00095 5.30749 9.00095C4.97125 9.00095 4.67753 9.1229 4.62729 9.45062C4.59637 9.66402 4.68526 9.95745 4.83212 10.1213C4.9442 10.2509 5.22247 10.2814 5.43117 10.2814C7.44087 10.2928 9.45058 10.289 11.4641 10.289C12.4033 10.289 13.3386 10.2928 14.2777 10.2852C14.7492 10.2814 15.0584 9.96507 15.0043 9.56494C14.9579 9.21054 14.6835 9.00476 14.2352 9.00476C12.7511 8.99714 11.2709 9.00095 9.79068 9.00095ZM9.75203 12.8574C11.2477 12.8574 12.7395 12.8612 14.2352 12.8574C14.7415 12.8574 15.0584 12.5487 15.0043 12.1372C14.9541 11.7714 14.6797 11.577 14.1966 11.577C12.1869 11.577 10.1772 11.577 8.16359 11.577C7.21285 11.577 6.2621 11.5732 5.31136 11.5808C4.83599 11.5846 4.53067 11.9009 4.58477 12.301C4.63115 12.6554 4.90555 12.8612 5.35387 12.8612C6.81477 12.8574 8.2834 12.8574 9.75203 12.8574Z" fill="black"/>
<path d="M35.8743 14.1226C30.6298 14.1226 25.447 14.1226 20.245 14.1226C20.245 11.5618 20.245 9.02382 20.245 6.42871C20.388 6.42871 20.5349 6.42871 20.6779 6.42871C22.2122 6.42871 23.7465 6.42871 25.2847 6.42871C26.2316 6.42871 26.7456 5.92188 26.7495 4.98825C26.7534 3.48682 26.7495 1.9892 26.7495 0.487774C26.7495 0.342966 26.7495 0.198158 26.7495 0.0190537C26.9002 0.0114322 27.0316 0 27.163 0C29.5669 0 31.9709 0 34.3748 0C35.368 0 35.8743 0.499206 35.8743 1.48619C35.8743 5.55605 35.8743 9.62972 35.8743 13.6996C35.8743 13.833 35.8743 13.9625 35.8743 14.1226ZM28.0249 10.2852C29.4935 10.2852 30.9583 10.2852 32.4269 10.2852C32.968 10.2852 33.2733 10.0413 33.2656 9.62972C33.254 9.2296 32.9602 9.00095 32.4385 9.00095C29.5167 9.00095 26.5988 9.00095 23.677 9.00095C23.1359 9.00095 22.8306 9.24484 22.8383 9.6564C22.8499 10.0565 23.1436 10.2852 23.6654 10.2852C25.1185 10.2852 26.5717 10.2852 28.0249 10.2852ZM28.0481 12.8574C29.5283 12.8574 31.0085 12.8612 32.4887 12.8574C32.995 12.8574 33.3119 12.5487 33.2578 12.1372C33.2076 11.7714 32.9332 11.577 32.4501 11.577C30.452 11.577 28.4577 11.577 26.4596 11.577C25.4934 11.577 24.5311 11.5732 23.5649 11.5808C23.0895 11.5846 22.7842 11.9009 22.8383 12.301C22.8847 12.6554 23.1591 12.8612 23.6035 12.8612C25.0876 12.8574 26.5678 12.8574 28.0481 12.8574Z" fill="black"/>
<path d="M2.11902 5.11397C3.79249 3.46773 5.48141 1.79863 7.16261 0.144775C7.16261 1.76053 7.16261 3.42201 7.16261 5.11397C5.46209 5.11397 3.76543 5.11397 2.11902 5.11397Z" fill="black"/>
<path d="M25.42 5.13308C23.704 5.13308 22.0228 5.13308 20.4382 5.13308C22.0847 3.50971 23.7774 1.8406 25.42 0.224854C25.42 1.76439 25.42 3.42968 25.42 5.13308Z" fill="black"/>
</g>
<defs>
<clipPath id="clip0_187_116">
<rect width="36.507" height="36" fill="white" transform="translate(0.661987)"/>
</clipPath>
</defs>
</svg>
