<svg width="1440" height="540" viewBox="0 0 1440 540" fill="none" xmlns="http://www.w3.org/2000/svg">
<path d="M0 0H1440V283.328H1418.73C1418.73 283.328 1402.18 282.835 1396.51 298.075C1396.51 298.075 1395.11 302.969 1395.11 309.977C1395.12 316.406 1395.13 322.836 1395.14 329.266C1395.16 343.995 1395.18 358.724 1395.2 373.456C1395.22 389.682 1395.24 405.908 1395.27 422.136C1395.28 433.049 1395.13 443.981 1395.31 454.894C1395.47 463.775 1390.93 471.793 1383.12 476.068C1375.38 480.309 1366.1 480.046 1357.55 479.688C1338.99 478.911 1320.45 480.003 1301.89 479.81C1298.3 479.768 1294.74 479.413 1291.16 479.85C1278.07 481.448 1269.67 491.103 1269.05 504.195C1268.68 512.011 1269.63 519.392 1266.17 526.636C1262.76 533.773 1256.29 538.326 1248.5 539.504H128.72C128.72 539.504 105.735 538.228 104.79 516.188C103.988 497.465 104.722 478.73 104.771 460.001C104.796 450.609 100.733 441.985 92.1742 437.438C89.2773 435.898 86.1021 434.913 82.884 434.316L0 434.417V0Z" fill="#262626"/>
</svg>
