<svg width="42" height="29" viewBox="0 0 42 29" fill="none" xmlns="http://www.w3.org/2000/svg">
<g clip-path="url(#clip0_221_85)">
<path d="M0.197205 10.8776C0.423078 10.5621 0.733052 10.4832 1.12232 10.4855C3.80877 10.4994 6.49762 10.4925 9.18407 10.4925C9.31623 10.4925 9.44599 10.4925 9.60458 10.4925C9.60458 12.1372 9.60458 13.7588 9.60458 15.429C6.46638 15.429 3.33059 15.429 0.197205 15.429C0.197205 13.9096 0.197205 12.3947 0.197205 10.8776Z" fill="black"/>
<path d="M0.197205 21.5975C3.32338 21.5975 6.44716 21.5975 9.60217 21.5975C9.60217 23.2376 9.60217 24.8592 9.60217 26.5341C9.46761 26.5341 9.32584 26.5341 9.18407 26.5341C6.49762 26.5341 3.80877 26.5271 1.12232 26.5411C0.733052 26.5434 0.423078 26.4622 0.197205 26.149C0.197205 24.6295 0.197205 23.1124 0.197205 21.5975Z" fill="black"/>
<path d="M0.197205 16.6609C1.59089 16.6609 2.98457 16.6609 4.40709 16.6609C4.40709 17.8927 4.40709 19.1037 4.40709 20.3633C3.0038 20.3633 1.6005 20.3633 0.197205 20.3633C0.197205 19.1292 0.197205 17.895 0.197205 16.6609Z" fill="black"/>
<path d="M8.11235 29C7.9922 28.9095 7.84322 28.8399 7.75432 28.7286C7.44675 28.3365 7.72548 27.796 8.28776 27.7821C9.59975 27.7496 10.9141 27.7542 12.2261 27.789C12.4184 27.7937 12.6995 28.0187 12.762 28.1996C12.8244 28.3783 12.6707 28.6334 12.5914 28.8469C12.5697 28.9095 12.4832 28.9489 12.428 28.9976C10.991 29 9.55169 29 8.11235 29Z" fill="black"/>
<path d="M15.8666 29.0001C15.6383 28.8029 15.3956 28.6057 15.4821 28.2647C15.571 27.9167 15.8209 27.7659 16.1861 27.7659C16.9575 27.7683 17.7288 27.7729 18.4977 27.7636C18.8678 27.759 19.197 27.803 19.3412 28.1905C19.4829 28.5639 19.2306 28.7843 18.9807 29.0001C17.9475 29.0001 16.907 29.0001 15.8666 29.0001Z" fill="black"/>
<path d="M21.7032 29.0001C21.475 28.8029 21.2323 28.6057 21.3188 28.2647C21.4077 27.9167 21.6576 27.7659 22.0228 27.7659C22.7941 27.7683 23.5655 27.7729 24.3344 27.7636C24.7045 27.759 25.0337 27.803 25.1778 28.1905C25.3196 28.5639 25.0673 28.7843 24.8174 29.0001C23.7817 29.0001 22.7437 29.0001 21.7032 29.0001Z" fill="black"/>
<path d="M31.6945 26.5317C31.6945 24.5552 31.6945 22.6414 31.6945 20.7275C31.6945 19.9666 31.4638 19.7462 30.6684 19.7462C29.5895 19.7462 28.5106 19.7439 27.4317 19.7462C26.7469 19.7486 26.4994 19.9898 26.4994 20.6579C26.497 22.4581 26.4994 24.256 26.4994 26.0561C26.4994 26.1953 26.4994 26.3368 26.4994 26.5039C24.3416 26.5039 22.2054 26.5039 20.0476 26.5039C20.0476 24.8846 20.0476 23.27 20.0476 21.5975C20.4201 21.5975 20.7997 21.5975 21.1794 21.5975C21.3259 21.5975 21.4725 21.6044 21.6191 21.5951C22.0012 21.5696 22.2583 21.3214 22.2607 20.985C22.2631 20.6347 21.9964 20.3726 21.5879 20.368C20.6147 20.3587 19.6415 20.3633 18.6707 20.3633C17.6207 20.3633 16.5706 20.3633 15.4941 20.3633C15.4941 19.1269 15.4941 17.9136 15.4941 16.6609C15.6455 16.6609 15.7897 16.6609 15.9314 16.6609C18.3968 16.6609 20.8622 16.6609 23.3252 16.6609C23.4573 16.6609 23.5943 16.6702 23.724 16.6493C24.046 16.5959 24.2791 16.3245 24.2575 16.0229C24.2335 15.7005 24.0436 15.5033 23.7192 15.4407C23.5895 15.4175 23.4549 15.4291 23.3204 15.4291C19.3628 15.4291 15.4052 15.4291 11.45 15.4291C11.2914 15.4291 11.1328 15.4291 10.943 15.4291C10.943 13.789 10.943 12.1651 10.943 10.4925C11.08 10.4925 11.2217 10.4925 11.3635 10.4925C14.2422 10.4925 17.1185 10.4971 19.9971 10.4832C20.1918 10.4832 20.4369 10.3812 20.5738 10.2466C21.4437 9.39523 22.2871 8.51834 23.1449 7.65769C24.7044 6.09646 26.2711 4.53986 27.8354 2.98327C28.5082 2.31284 29.4021 2.285 30.1014 2.93455C31.1971 3.95063 32.2736 4.98295 33.3645 6.00134C35.2099 7.72265 37.0602 9.44163 38.9128 11.156C39.7178 11.9006 40.5324 12.636 41.347 13.3714C41.6954 13.6846 41.8948 14.0441 41.6978 14.5035C41.4983 14.9674 41.1067 15.1298 40.6069 15.1205C40.1575 15.1113 39.7082 15.1182 39.2156 15.1182C39.2156 15.2876 39.2156 15.4244 39.2156 15.5636C39.2156 18.5446 39.2276 21.5255 39.2108 24.5088C39.2036 25.6525 38.2688 26.5572 37.1275 26.541C35.4358 26.5155 33.7442 26.534 32.0525 26.534C31.9444 26.5317 31.8411 26.5317 31.6945 26.5317ZM29.0849 15.1159C29.7818 15.1414 30.3777 14.6125 30.4113 13.9421C30.445 13.26 29.8755 12.6708 29.1642 12.6523C28.3953 12.6337 27.7994 13.1487 27.7801 13.8446C27.7585 14.5522 28.3088 15.0881 29.0849 15.1159ZM29.1042 8.02654C28.984 8.02654 28.8639 8.01958 28.7437 8.02654C28.3592 8.04974 28.1045 8.28868 28.0973 8.62737C28.0901 8.98231 28.352 9.23053 28.7581 9.25372C28.8783 9.26068 28.9984 9.25604 29.1186 9.25604C29.7698 9.25604 30.0797 9.06118 30.0893 8.65057C30.1014 8.22605 29.7818 8.02422 29.1042 8.02654Z" fill="black"/>
<path d="M5.35145 3.48206C5.53408 3.63516 5.70228 3.76275 5.85126 3.90658C6.25975 4.30327 6.31742 4.70228 6.06752 5.20336C5.91373 5.51421 5.76475 5.83203 5.6398 6.15448C5.42114 6.7298 5.11597 6.94554 4.4792 6.96178C4.26054 6.96874 3.88809 6.95714 3.85444 7.04761C3.76073 7.29815 3.79437 7.59973 3.81119 7.88042C3.8136 7.93146 3.95777 8.01033 4.04187 8.01961C4.25333 8.04049 4.47199 8.00801 4.67864 8.03817C5.02226 8.08689 5.22891 8.29335 5.23131 8.639C5.23371 8.98466 5.02947 9.20968 4.68585 9.2468C3.96978 9.32103 3.27054 9.29319 2.7395 8.71324C2.72268 8.69468 2.69144 8.6854 2.67942 8.66452C2.29015 7.98714 2.31899 7.25176 2.56168 6.57669C2.75632 6.03849 3.29697 5.72532 3.91692 5.73924C4.32301 5.74852 4.46719 5.60237 4.63058 5.26599C4.83002 4.85539 4.8084 4.61181 4.45517 4.28935C3.96498 3.84163 3.99862 3.09465 4.46959 2.57501C4.71469 2.30591 4.98621 2.05305 5.27216 1.82339C5.83204 1.37567 6.6322 1.39886 7.16084 1.90458C7.41315 2.14584 7.62941 2.234 7.94419 2.06233C8.04751 2.00666 8.16285 1.96026 8.2806 1.9417C8.65305 1.88371 8.74436 1.68188 8.74436 1.32695C8.73955 0.57533 9.33547 0.0255338 10.1116 0.00465543C10.4168 -0.00462383 10.7243 -0.00230402 11.0319 0.00465543C11.8537 0.0208941 12.4448 0.57069 12.44 1.37103C12.4376 1.69812 12.5313 1.87907 12.8653 1.9301C12.9158 1.93706 12.9663 1.96258 13.0143 1.98578C13.4348 2.18064 13.7688 2.18992 14.1485 1.80947C14.5858 1.37103 15.3764 1.40814 15.8762 1.80019C16.1741 2.03449 16.4577 2.29431 16.71 2.57501C17.2122 3.13409 17.1978 3.87643 16.6427 4.37519C16.3544 4.635 16.3087 4.85307 16.5178 5.15464C16.5754 5.23816 16.6187 5.33791 16.6403 5.43766C16.6908 5.66964 16.8277 5.72764 17.0656 5.72996C18.2262 5.74156 18.7476 6.25655 18.7476 7.36311C18.7476 7.51621 18.7501 7.67164 18.7476 7.82475C18.738 8.56477 18.2166 9.15168 17.4549 9.23984C17.1521 9.27463 16.8421 9.26767 16.537 9.2468C16.1813 9.2236 15.9459 8.96378 15.9459 8.63668C15.9459 8.30959 16.1837 8.06369 16.5394 8.02657C16.5922 8.02193 16.6451 8.02425 16.698 8.02193C17.3996 8.00801 17.539 7.83635 17.3756 7.14968C17.3564 7.07313 17.2314 6.98266 17.1401 6.96642C16.9719 6.93626 16.7941 6.95946 16.6211 6.95482C16.0828 6.9409 15.7536 6.7066 15.5614 6.22872C15.4316 5.90626 15.3043 5.58149 15.1457 5.27295C14.8453 4.68604 14.8958 4.31023 15.3812 3.85323C15.5133 3.72796 15.6671 3.62589 15.8786 3.45654C15.5998 3.21296 15.3956 3.01345 15.1625 2.84875C15.088 2.79539 14.9318 2.82091 14.8261 2.85339C14.7468 2.87891 14.6891 2.9717 14.6219 3.03201C14.0524 3.56093 13.6559 3.62125 12.9326 3.30343C12.6539 3.1828 12.3703 3.07145 12.082 2.97634C11.3972 2.75364 11.1809 2.46366 11.1641 1.7538C11.1593 1.58677 11.1184 1.28287 11.0632 1.27591C10.7388 1.23648 10.4072 1.25736 10.078 1.28751C10.0443 1.28983 10.0107 1.48934 10.0083 1.59837C9.98666 2.54021 9.84729 2.72116 8.93899 3.02041C8.66266 3.11089 8.40074 3.23848 8.13162 3.35215C7.52849 3.60501 7.09837 3.54005 6.63701 3.11553C6.12038 2.63764 6.23092 2.62605 5.68786 3.13408C5.59175 3.23152 5.49563 3.33359 5.35145 3.48206Z" fill="black"/>
<path d="M18.7164 26.5155C16.1092 26.5155 13.5309 26.5155 10.931 26.5155C10.931 24.8847 10.931 23.2724 10.931 21.6277C13.5117 21.6277 16.0996 21.6277 18.7164 21.6277C18.7164 23.24 18.7164 24.8615 18.7164 26.5155Z" fill="black"/>
<path d="M5.73828 16.6678C8.56169 16.6678 11.3443 16.6678 14.1581 16.6678C14.1581 17.8857 14.1581 19.0967 14.1581 20.3355C11.3659 20.3355 8.5641 20.3355 5.73828 20.3355C5.73828 19.1222 5.73828 17.9113 5.73828 16.6678Z" fill="black"/>
<path d="M7.6342 7.46054C7.59094 6.46534 8.66745 5.22424 9.6238 4.90178C10.7123 4.53525 11.9354 4.82291 12.7163 5.66964C13.2017 6.19856 13.5646 6.77619 13.5477 7.51622C13.5381 7.96858 13.3002 8.22144 12.8509 8.23536C12.4809 8.24696 12.2189 7.98018 12.1901 7.56261C12.1228 6.63932 11.4332 5.95034 10.5826 5.9573C9.74154 5.96426 9.04951 6.65092 8.99184 7.53709C8.963 7.97786 8.69147 8.25856 8.31422 8.23536C7.84805 8.20752 7.62459 7.95234 7.6342 7.46054Z" fill="black"/>
</g>
<defs>
<clipPath id="clip0_221_85">
<rect width="41.5775" height="29" fill="white" transform="translate(0.197205)"/>
</clipPath>
</defs>
</svg>
