<svg width="72" height="72" viewBox="0 0 72 72" fill="none" xmlns="http://www.w3.org/2000/svg">
<path d="M28.92 40.2C25.89 37.5 22.02 36.09 18 36V45L6 33L18 21V30C23.01 30 27.9 31.71 31.89 34.77C30.6698 36.4442 29.6715 38.2694 28.92 40.2ZM54 45V36C52.5 36 40.5 36.48 39.15 48.6C43.83 50.25 46.29 55.41 44.64 60.09C43.8413 62.3395 42.1834 64.1805 40.0296 65.2096C37.8758 66.2387 35.4018 66.3719 33.15 65.58C28.5 63.9 26.01 58.77 27.66 54.09C28.5 51.51 30.6 49.5 33.15 48.6C33.5711 43.415 35.9713 38.591 39.8532 35.128C43.7351 31.665 48.8008 29.8288 54 30V21L66 33L54 45ZM39 57C39 56.2044 38.6839 55.4413 38.1213 54.8787C37.5587 54.3161 36.7957 54 36 54C35.2044 54 34.4413 54.3161 33.8787 54.8787C33.3161 55.4413 33 56.2044 33 57C33 57.7957 33.3161 58.5587 33.8787 59.1213C34.4413 59.6839 35.2044 60 36 60C36.7957 60 37.5587 59.6839 38.1213 59.1213C38.6839 58.5587 39 57.7957 39 57ZM33 33.36C34.74 31.38 36.75 29.67 39 28.29V15H48L36 3L24 15H33V33.36Z" fill="#E6C773"/>
</svg>
