<?xml version="1.0" encoding="utf-8"?>
<!-- Generator: Adobe Illustrator 25.0.0, SVG Export Plug-In . SVG Version: 6.00 Build 0)  -->
<svg version="1.1" id="Layer_1" xmlns="http://www.w3.org/2000/svg" xmlns:xlink="http://www.w3.org/1999/xlink" x="0px" y="0px"
	 viewBox="0 0 51 50" style="enable-background:new 0 0 51 50;" xml:space="preserve">
<style type="text/css">
	.st0{fill:#E6C773;}
</style>
<ellipse class="st0" cx="25.5" cy="25" rx="25.4" ry="25"/>
<g>
	<path d="M7.2,23.4c0.3-0.7,0.9-1,1.7-1c3.2,0,6.4,0,9.6,0c0.1,0,0.3,0,0.5,0c0,2.3,0,4.5,0,6.8c-0.4-0.4-0.7-0.7-1-1
		c-0.1-0.1-0.3-0.3-0.4-0.4c-0.3-0.3-0.7-0.3-0.9,0c-0.2,0.3-0.2,0.6,0,0.9c0.3,0.4,0.7,0.7,1,1c0.5,0.5,1,1,1.5,1.4
		c0.4,0.4,0.7,0.4,1.1,0c0.8-0.8,1.6-1.6,2.5-2.4c0.3-0.3,0.3-0.7,0.1-1c-0.3-0.3-0.6-0.2-1,0.1c-0.5,0.4-0.9,0.9-1.4,1.4
		c0-2.3,0-4.5,0-6.8c3.5,0,6.9,0,10.4,0c0,2.2,0,4.5,0,6.8c-0.5-0.5-0.9-0.9-1.4-1.4c-0.1-0.1-0.4-0.3-0.5-0.3
		c-0.2,0-0.5,0.2-0.6,0.4c-0.2,0.2-0.1,0.5,0.1,0.7c0.5,0.5,1,1,1.6,1.5c0.3,0.3,0.6,0.7,1,1c0.3,0.3,0.7,0.3,1,0
		c0.8-0.8,1.7-1.6,2.5-2.5c0.3-0.3,0.3-0.7,0.1-1c-0.3-0.3-0.7-0.3-1,0c-0.5,0.4-0.9,0.9-1.4,1.4c0-2.3,0-4.5,0-6.8
		c0.1,0,0.3,0,0.4,0c3.2,0,6.5,0,9.7,0c1.3,0,1.9,1,1.3,2.1c-1.7,2.9-3.3,5.7-5,8.6C38.2,33.8,37.7,34,37,34c-7.2,0-14.5,0-21.7,0
		c-0.6,0-1.1-0.2-1.4-0.7c-2.1-2.9-4.1-5.7-6.2-8.6c-0.1-0.2-0.3-0.4-0.4-0.6C7.2,23.8,7.2,23.6,7.2,23.4z"/>
	<path d="M17.3,43c-0.1,0-0.2-0.1-0.3-0.1c-1.1-0.3-1.9-1.3-1.9-2.4c0-0.8,0-1.6,0-2.5c0-1.6,1.1-2.7,2.8-2.7c3.1,0,6.2,0,9.3,0
		c2,0,4,0,6.1,0c1.7,0,2.7,1.1,2.8,2.7c0,0.7,0,1.5,0,2.2c0,1.4-0.7,2.3-2.1,2.7c0,0-0.1,0-0.1,0.1C28.2,43,22.8,43,17.3,43z
		 M21,39.8c0.8,0,1.6,0,2.4,0c0.5,0,0.8-0.2,0.8-0.6c0-0.4-0.3-0.7-0.8-0.7c-1.6,0-3.3,0-4.9,0c-0.5,0-0.8,0.2-0.8,0.6
		c0,0.4,0.3,0.7,0.8,0.7C19.3,39.8,20.1,39.8,21,39.8z M28.1,37.9c-0.7,0-1.3,0.6-1.3,1.3c0,0.7,0.6,1.3,1.3,1.3
		c0.7,0,1.3-0.6,1.3-1.3C29.4,38.4,28.8,37.9,28.1,37.9z M32,40.4c0.7,0,1.3-0.6,1.3-1.3c0-0.7-0.6-1.3-1.3-1.3
		c-0.7,0-1.3,0.6-1.3,1.3C30.7,39.8,31.3,40.4,32,40.4z"/>
	<path d="M24.2,21.1c-5.2,0-10.4,0-15.6,0c0-2.6,0-5.1,0-7.7c0.1,0,0.3,0,0.4,0c1.5,0,3,0,4.5,0c1.1,0,1.6-0.5,1.6-1.6
		c0-1.6,0-3.2,0-4.8c0.2,0,0.3,0,0.4,0c2.4,0,4.8,0,7.2,0c1,0,1.5,0.5,1.5,1.5c0,4.1,0,8.2,0,12.3C24.2,20.9,24.2,21,24.2,21.1z
		 M16.4,16c-0.2,0-0.4,0-0.7,0c-1.3,0-2.6,0-3.8,0c-0.3,0-0.6,0.1-0.7,0.4c0,0.2,0.1,0.5,0.2,0.7c0.1,0.1,0.4,0.2,0.6,0.2
		c2,0,4,0,6,0c0.9,0,1.9,0,2.8,0c0.5,0,0.8-0.3,0.7-0.7c0-0.4-0.3-0.6-0.8-0.6C19.3,16,17.9,16,16.4,16z M16.3,19.9c1.5,0,3,0,4.5,0
		c0.5,0,0.8-0.3,0.8-0.7c-0.1-0.4-0.3-0.6-0.8-0.6c-2,0-4,0-6,0c-1,0-1.9,0-2.9,0c-0.5,0-0.8,0.3-0.7,0.7c0,0.4,0.3,0.6,0.8,0.6
		C13.4,19.9,14.9,19.9,16.3,19.9z"/>
	<path d="M42.5,21.1c-5.2,0-10.4,0-15.6,0c0-2.6,0-5.1,0-7.7c0.1,0,0.3,0,0.4,0c1.5,0,3.1,0,4.6,0c0.9,0,1.5-0.5,1.5-1.4
		c0-1.5,0-3,0-4.5c0-0.1,0-0.3,0-0.5c0.2,0,0.3,0,0.4,0c2.4,0,4.8,0,7.2,0c1,0,1.5,0.5,1.5,1.5c0,4.1,0,8.1,0,12.2
		C42.5,20.8,42.5,21,42.5,21.1z M34.6,17.3c1.5,0,2.9,0,4.4,0c0.5,0,0.8-0.2,0.8-0.7c0-0.4-0.3-0.6-0.8-0.6c-2.9,0-5.8,0-8.8,0
		c-0.5,0-0.8,0.2-0.8,0.7c0,0.4,0.3,0.6,0.8,0.6C31.7,17.3,33.2,17.3,34.6,17.3z M34.6,19.9c1.5,0,3,0,4.4,0c0.5,0,0.8-0.3,0.8-0.7
		c-0.1-0.4-0.3-0.6-0.8-0.6c-2,0-4,0-6,0c-1,0-1.9,0-2.9,0c-0.5,0-0.8,0.3-0.7,0.7c0,0.4,0.3,0.6,0.8,0.6
		C31.7,19.9,33.2,19.9,34.6,19.9z"/>
	<path d="M8.7,12.1c1.7-1.6,3.4-3.3,5-5c0,1.6,0,3.3,0,5C12,12.1,10.4,12.1,8.7,12.1z"/>
	<path d="M32,12.1c-1.7,0-3.4,0-5,0c1.6-1.6,3.3-3.3,5-4.9C32,8.8,32,10.4,32,12.1z"/>
</g>
</svg>
