<svg width="40" height="39" viewBox="0 0 40 39" fill="none" xmlns="http://www.w3.org/2000/svg">
<g clip-path="url(#clip0_185_65)">
<path d="M19.1389 39C18.3832 38.5461 17.6347 38.0797 16.8701 37.6417C16.6498 37.5145 16.5782 37.3785 16.58 37.1312C16.5889 33.36 16.5889 29.5905 16.58 25.8193C16.58 25.5543 16.6445 25.39 16.9059 25.3088C17.0151 25.2752 17.1136 25.2099 17.2175 25.1604C19.4684 24.0882 19.472 24.09 21.0352 22.1788C21.1516 22.0357 21.2304 21.8202 21.2322 21.6382C21.2501 20.559 21.2412 19.4797 21.2412 18.4005C21.243 17.0068 22.0989 16.3073 23.4974 16.5564C25.512 16.9149 26.8084 18.4499 26.8353 20.5254C26.8478 21.5658 26.8371 22.608 26.8371 23.6484C26.8371 23.7862 26.8371 23.9239 26.8371 24.1253C27.4316 24.1253 27.9939 24.1094 28.5544 24.1288C30.3504 24.1871 31.8295 25.3777 32.2325 27.107C32.3148 27.462 32.3381 27.8365 32.3399 28.2021C32.3488 30.4242 32.3453 32.6446 32.3435 34.8667C32.3417 37.0588 31.1437 38.5072 28.9716 38.9453C28.9358 38.9523 28.9053 38.9806 28.8731 38.9983C25.6266 39 22.3818 39 19.1389 39Z" fill="black"/>
<path d="M0.211243 21.0146C0.440452 20.4158 0.589079 19.7693 0.914986 19.227C1.82108 17.7133 3.22319 16.9466 5.00135 16.9166C6.81354 16.8866 8.62751 16.9078 10.4415 16.9113C13.1311 16.9166 15.2173 18.8967 15.3229 21.5516C15.3426 22.0692 15.3265 22.5885 15.3265 23.1678C12.8679 23.1678 10.4361 23.1678 7.95958 23.1678C7.95958 25.1497 7.95958 27.0716 7.95958 29.0128C7.84498 29.0234 7.77156 29.0358 7.69814 29.0358C5.26638 29.0375 2.83461 29.0375 0.402847 29.0358C0.338382 29.0358 0.275708 29.0234 0.211243 29.0181C0.211243 26.3491 0.211243 23.6819 0.211243 21.0146Z" fill="black"/>
<path d="M7.77512 3.56275C10.8372 3.56628 13.3281 6.02155 13.3299 9.03854C13.3317 12.0626 10.8086 14.5408 7.7411 14.5267C4.68438 14.5108 2.21143 12.0485 2.21681 9.02264C2.22218 6.00213 4.70766 3.55922 7.77512 3.56275Z" fill="black"/>
<path d="M14.2396 37.4492C12.9073 37.4492 11.6126 37.4492 10.2964 37.4492C10.2964 33.4607 10.2964 29.4951 10.2964 25.4943C11.6054 25.4943 12.9091 25.4943 14.2396 25.4943C14.2396 29.4722 14.2396 33.4483 14.2396 37.4492Z" fill="black"/>
<path d="M24.0382 10.2751C22.6684 8.18896 20.9439 6.48793 18.8291 5.13488C20.9421 3.7836 22.6558 2.08963 24.0364 0C25.4135 2.07903 27.1182 3.77653 29.2474 5.13311C27.1343 6.49146 25.4081 8.18366 24.0382 10.2751Z" fill="black"/>
<path d="M34.6087 8.32678C35.9231 10.3246 37.6385 12.0185 39.7605 13.3751C37.6529 14.7317 35.9302 16.4151 34.5532 18.5153C33.1815 16.438 31.4678 14.737 29.43 13.4334C30.3737 12.6403 31.355 11.9161 32.2109 11.07C33.0723 10.2221 33.8082 9.25413 34.6087 8.32678Z" fill="black"/>
</g>
<defs>
<clipPath id="clip0_185_65">
<rect width="39.5493" height="39" fill="white" transform="translate(0.211243)"/>
</clipPath>
</defs>
</svg>
