<?xml version="1.0" encoding="utf-8"?>
<!-- Generator: Adobe Illustrator 25.0.0, SVG Export Plug-In . SVG Version: 6.00 Build 0)  -->
<svg version="1.1" id="Layer_1" xmlns="http://www.w3.org/2000/svg" xmlns:xlink="http://www.w3.org/1999/xlink" x="0px" y="0px"
	 viewBox="0 0 51 50" style="enable-background:new 0 0 51 50;" xml:space="preserve">
<style type="text/css">
	.st0{fill:#E6C773;}
	.st1{clip-path:url(#SVGID_2_);}
</style>
<ellipse class="st0" cx="25.5" cy="25" rx="25.4" ry="25"/>
<g>
	<g>
		<defs>
			<rect id="SVGID_1_" x="4.5" y="10" width="42" height="30"/>
		</defs>
		<clipPath id="SVGID_2_">
			<use xlink:href="#SVGID_1_"  style="overflow:visible;"/>
		</clipPath>
		<g class="st1">
			<path d="M4.5,21.3C4.7,21,5,20.9,5.4,20.9c2.7,0,5.4,0,8.1,0c0.1,0,0.3,0,0.4,0c0,1.7,0,3.4,0,5.1c-3.2,0-6.3,0-9.5,0
				C4.5,24.4,4.5,22.8,4.5,21.3z"/>
			<path d="M4.5,32.3c3.2,0,6.3,0,9.5,0c0,1.7,0,3.4,0,5.1c-0.1,0-0.3,0-0.4,0c-2.7,0-5.4,0-8.1,0c-0.4,0-0.7-0.1-0.9-0.4
				C4.5,35.5,4.5,33.9,4.5,32.3z"/>
			<path d="M4.5,27.2c1.4,0,2.8,0,4.3,0c0,1.3,0,2.5,0,3.8c-1.4,0-2.8,0-4.3,0C4.5,29.8,4.5,28.5,4.5,27.2z"/>
			<path d="M12.5,40c-0.1-0.1-0.3-0.2-0.4-0.3c-0.3-0.4,0-1,0.5-1c1.3,0,2.7,0,4,0c0.2,0,0.5,0.2,0.5,0.4c0.1,0.2-0.1,0.4-0.2,0.7
				c0,0.1-0.1,0.1-0.2,0.2C15.4,40,13.9,40,12.5,40z"/>
			<path d="M20.3,40c-0.2-0.2-0.5-0.4-0.4-0.8c0.1-0.4,0.3-0.5,0.7-0.5c0.8,0,1.6,0,2.3,0c0.4,0,0.7,0,0.9,0.4
				c0.1,0.4-0.1,0.6-0.4,0.8C22.4,40,21.4,40,20.3,40z"/>
			<path d="M26.2,40c-0.2-0.2-0.5-0.4-0.4-0.8c0.1-0.4,0.3-0.5,0.7-0.5c0.8,0,1.6,0,2.3,0c0.4,0,0.7,0,0.9,0.4
				c0.1,0.4-0.1,0.6-0.4,0.8C28.3,40,27.3,40,26.2,40z"/>
			<path d="M36.3,37.4c0-2,0-4,0-6c0-0.8-0.2-1-1-1c-1.1,0-2.2,0-3.3,0c-0.7,0-0.9,0.3-0.9,0.9c0,1.9,0,3.7,0,5.6c0,0.1,0,0.3,0,0.5
				c-2.2,0-4.3,0-6.5,0c0-1.7,0-3.3,0-5.1c0.4,0,0.8,0,1.1,0c0.1,0,0.3,0,0.4,0c0.4,0,0.6-0.3,0.6-0.6c0-0.4-0.3-0.6-0.7-0.6
				c-1,0-2,0-2.9,0c-1.1,0-2.1,0-3.2,0c0-1.3,0-2.5,0-3.8c0.2,0,0.3,0,0.4,0c2.5,0,5,0,7.5,0c0.1,0,0.3,0,0.4,0
				c0.3-0.1,0.6-0.3,0.5-0.6c0-0.3-0.2-0.5-0.5-0.6c-0.1,0-0.3,0-0.4,0c-4,0-8,0-12,0c-0.2,0-0.3,0-0.5,0c0-1.7,0-3.4,0-5.1
				c0.1,0,0.3,0,0.4,0c2.9,0,5.8,0,8.7,0c0.2,0,0.4-0.1,0.6-0.2c0.9-0.9,1.7-1.8,2.6-2.7c1.6-1.6,3.2-3.2,4.7-4.8
				c0.7-0.7,1.6-0.7,2.3-0.1c1.1,1.1,2.2,2.1,3.3,3.2c1.9,1.8,3.7,3.6,5.6,5.3c0.8,0.8,1.6,1.5,2.5,2.3c0.4,0.3,0.6,0.7,0.4,1.2
				c-0.2,0.5-0.6,0.6-1.1,0.6s-0.9,0-1.4,0c0,0.2,0,0.3,0,0.5c0,3.1,0,6.2,0,9.3c0,1.2-1,2.1-2.1,2.1c-1.7,0-3.4,0-5.1,0
				C36.6,37.4,36.5,37.4,36.3,37.4z M33.7,25.6c0.7,0,1.3-0.5,1.3-1.2s-0.5-1.3-1.3-1.3s-1.4,0.5-1.4,1.2
				C32.3,25.1,32.9,25.6,33.7,25.6z M33.7,18.3c-0.1,0-0.2,0-0.4,0c-0.4,0-0.6,0.3-0.7,0.6c0,0.4,0.3,0.6,0.7,0.6c0.1,0,0.2,0,0.4,0
				c0.7,0,1-0.2,1-0.6S34.4,18.3,33.7,18.3z"/>
			<path d="M9.7,13.6c0.2,0.2,0.4,0.3,0.5,0.4c0.4,0.4,0.5,0.8,0.2,1.3c-0.2,0.3-0.3,0.7-0.4,1c-0.2,0.6-0.5,0.8-1.2,0.8
				c-0.2,0-0.6,0-0.6,0.1c-0.1,0.3-0.1,0.6,0,0.9c0,0.1,0.1,0.1,0.2,0.1c0.2,0,0.4,0,0.6,0c0.3,0.1,0.6,0.3,0.6,0.6
				c0,0.4-0.2,0.6-0.6,0.6c-0.7,0.1-1.4,0-2-0.6c0,0,0,0-0.1-0.1c-0.4-0.7-0.4-1.5-0.1-2.2c0.2-0.6,0.7-0.9,1.4-0.9
				c0.4,0,0.6-0.1,0.7-0.5c0.2-0.4,0.2-0.7-0.2-1c-0.5-0.5-0.5-1.2,0-1.8c0.2-0.3,0.5-0.5,0.8-0.8c0.6-0.5,1.4-0.4,1.9,0.1
				c0.3,0.2,0.5,0.3,0.8,0.2c0.1-0.1,0.2-0.1,0.3-0.1c0.4-0.1,0.5-0.3,0.5-0.6c0-0.8,0.6-1.3,1.4-1.4c0.3,0,0.6,0,0.9,0
				c0.8,0,1.4,0.6,1.4,1.4c0,0.3,0.1,0.5,0.4,0.6c0.1,0,0.1,0,0.2,0.1c0.4,0.2,0.8,0.2,1.1-0.2c0.4-0.5,1.2-0.4,1.7,0
				c0.3,0.2,0.6,0.5,0.8,0.8c0.5,0.6,0.5,1.3-0.1,1.9c-0.3,0.3-0.3,0.5-0.1,0.8c0.1,0.1,0.1,0.2,0.1,0.3c0.1,0.2,0.2,0.3,0.4,0.3
				c1.2,0,1.7,0.5,1.7,1.7c0,0.2,0,0.3,0,0.5c0,0.8-0.5,1.4-1.3,1.5c-0.3,0-0.6,0-0.9,0c-0.4,0-0.6-0.3-0.6-0.6
				c0-0.3,0.2-0.6,0.6-0.6c0.1,0,0.1,0,0.2,0c0.7,0,0.8-0.2,0.7-0.9c0-0.1-0.1-0.2-0.2-0.2c-0.2,0-0.3,0-0.5,0
				c-0.5,0-0.9-0.3-1.1-0.8c-0.1-0.3-0.3-0.7-0.4-1c-0.3-0.6-0.3-1,0.2-1.5c0.1-0.1,0.3-0.2,0.5-0.4c-0.3-0.3-0.5-0.5-0.7-0.6
				c-0.1-0.1-0.2,0-0.3,0c-0.1,0-0.1,0.1-0.2,0.2c-0.6,0.5-1,0.6-1.7,0.3c-0.3-0.1-0.6-0.2-0.9-0.3c-0.7-0.2-0.9-0.5-0.9-1.3
				c0-0.2,0-0.5-0.1-0.5c-0.3,0-0.7,0-1,0c0,0-0.1,0.2-0.1,0.3c0,1-0.2,1.2-1.1,1.5c-0.3,0.1-0.5,0.2-0.8,0.3
				c-0.6,0.3-1,0.2-1.5-0.2c-0.5-0.5-0.4-0.5-1,0C9.9,13.3,9.9,13.4,9.7,13.6z"/>
			<path d="M23.2,37.4c-2.6,0-5.2,0-7.9,0c0-1.7,0-3.4,0-5.1c2.6,0,5.2,0,7.9,0C23.2,34,23.2,35.7,23.2,37.4z"/>
			<path d="M10.1,27.2c2.9,0,5.7,0,8.5,0c0,1.3,0,2.5,0,3.8c-2.8,0-5.7,0-8.5,0C10.1,29.8,10.1,28.5,10.1,27.2z"/>
			<path d="M12,17.7c0-1,1-2.3,2-2.6c1.1-0.4,2.3-0.1,3.1,0.8c0.5,0.5,0.9,1.1,0.8,1.9c0,0.5-0.2,0.7-0.7,0.7
				c-0.4,0-0.6-0.3-0.7-0.7c-0.1-1-0.8-1.7-1.6-1.7s-1.5,0.7-1.6,1.6c0,0.5-0.3,0.7-0.7,0.7C12.2,18.5,12,18.2,12,17.7z"/>
		</g>
	</g>
</g>
</svg>
