<?xml version="1.0" encoding="utf-8"?>
<!-- Generator: Adobe Illustrator 25.0.0, SVG Export Plug-In . SVG Version: 6.00 Build 0)  -->
<svg version="1.1" id="Layer_1" xmlns="http://www.w3.org/2000/svg" xmlns:xlink="http://www.w3.org/1999/xlink" x="0px" y="0px"
	 viewBox="0 0 51 50" style="enable-background:new 0 0 51 50;" xml:space="preserve">
<style type="text/css">
	.st0{fill:#E6C773;}
	.st1{fill:none;stroke:#000000;stroke-width:3;stroke-linecap:round;stroke-linejoin:round;}
</style>
<ellipse class="st0" cx="25.5" cy="25" rx="25.4" ry="25"/>
<path class="st1" d="M9.5,23.4c3.7-3.9,9-4.1,12.8,0 M28.7,41c3.7-3.9,9-4.1,12.8,0 M11.1,28.2c0,6.2,5,11.2,11.2,11.2l-1.6-3.2
	 M30.3,10.6h9.6 M30.3,15.4h9.6 M30.3,20.2h5.6 M19.9,13c0,2.2-1.8,4-4,4c-0.5,0-1-0.1-1.5-0.3s-0.9-0.5-1.3-0.9
	c-0.4-0.4-0.7-0.8-0.9-1.3s-0.3-1-0.3-1.5c0-2.2,1.8-4,4-4c0.5,0,1,0.1,1.5,0.3c0.5,0.2,0.9,0.5,1.3,0.9c0.4,0.4,0.7,0.8,0.9,1.3
	C19.8,12,19.9,12.5,19.9,13z M39.1,30.6c0,2.2-1.8,4-4,4c-0.5,0-1-0.1-1.5-0.3s-0.9-0.5-1.3-0.9c-0.4-0.4-0.7-0.8-0.9-1.3
	c-0.2-0.5-0.3-1-0.3-1.5c0-2.2,1.8-4,4-4c0.5,0,1,0.1,1.5,0.3c0.5,0.2,0.9,0.5,1.3,0.9c0.4,0.4,0.7,0.8,0.9,1.3
	C39,29.6,39.1,30.1,39.1,30.6z"/>
</svg>
