<?xml version="1.0" encoding="utf-8"?>
<!-- Generator: Adobe Illustrator 25.0.0, SVG Export Plug-In . SVG Version: 6.00 Build 0)  -->
<svg version="1.1" id="Layer_1" xmlns="http://www.w3.org/2000/svg" xmlns:xlink="http://www.w3.org/1999/xlink" x="0px" y="0px"
	 viewBox="0 0 51 50" style="enable-background:new 0 0 51 50;" xml:space="preserve">
<style type="text/css">
	.st0{fill:#E6C773;}
</style>
<ellipse class="st0" cx="25.5" cy="25" rx="25.4" ry="25"/>
<g>
	<path d="M25.9,46c-0.2,0-0.5,0-0.7,0c-0.6-0.5-1.2-1-1.8-1.5c-1.1-1-2.4-1.5-3.9-1.5c-1.4,0-2.8,0-4.2,0c-1.1,0-1.7-0.6-1.7-1.7
		c0-1.8,0-3.5,0-5.3c0-0.2,0-0.3,0-0.5c-1.1,0-2.1,0-3.1,0c-3.2,0-5.9-2.7-5.9-5.9c0-4.1,0-8.1,0-12.2c0-2.7,1.9-5.1,4.6-5.7
		c1.2-0.2,2.5-0.2,3.7-0.2c0.2,0,0.5,0,0.7,0c0-2,0-3.9,0-5.8c0-1.1,0.6-1.7,1.6-1.7c1.5,0,3,0,4.5,0c2.1,0,3.8,0.7,5.4,2
		c0.1,0.1,0.3,0.2,0.5,0.4c0.1-0.1,0.2-0.2,0.3-0.2C27.5,4.7,29.4,4,31.7,4c1.4,0,2.7,0,4.1,0c1.1,0,1.7,0.6,1.7,1.7
		c0,1.8,0,3.5,0,5.3c0,0.2,0,0.3,0,0.5c1.1,0,2.1,0,3.1,0c2.7,0,5,1.9,5.7,4.4c0.1,0.3,0.1,0.5,0.2,0.8c0,4.5,0,9,0,13.5
		c0,0.2-0.1,0.3-0.1,0.5c-0.6,2.8-3,4.7-5.9,4.8c-1,0-2,0-3,0c0,0.2,0,0.4,0,0.6c0,1.7,0,3.5,0,5.2c0,1.1-0.6,1.7-1.7,1.7
		c-1.3,0-2.7,0-4,0c-1.7-0.1-3.1,0.5-4.3,1.6C27,45.1,26.4,45.5,25.9,46z M37.5,32.5c0.2,0,0.4,0,0.6,0c0.9,0,1.8,0,2.7,0
		c1.5-0.1,2.7-1.4,2.7-2.9c0-4.1,0-8.2,0-12.2c0-1.3-0.9-2.6-2.2-2.7c-1.2-0.2-2.5-0.1-3.7-0.2c0,0.1,0,0.2,0,0.2c0,1.9,0,3.8,0,5.7
		c0,1.1-0.6,1.7-1.7,1.7c-1.5,0-2.9,0-4.4,0c-1.2,0-2.4,0.4-3.3,1.2c-0.5,0.4-1,0.9-1.4,1.3c-0.8,0.7-1.6,0.7-2.3,0
		c-0.4-0.3-0.7-0.7-1.1-1c-1.1-1-2.3-1.5-3.8-1.4c-1.4,0-2.9,0-4.3,0c-1,0-1.6-0.6-1.6-1.7c0-1.5,0-3.1,0-4.6c0-0.4,0-0.8,0-1.2
		c-1,0-2,0-3,0c-1.7,0-3,1.3-3,3c0,4,0,8,0,11.9c0,1.5,1,2.8,2.5,3c1.1,0.1,2.3,0,3.5,0c0-0.2,0-0.3,0-0.5c0-1.8,0-3.5,0-5.3
		c0-1,0.6-1.6,1.6-1.6c1.5,0,3,0,4.5,0c2,0,3.8,0.7,5.4,2c0.2,0.1,0.3,0.3,0.5,0.4c0.1-0.1,0.3-0.2,0.4-0.3c1.6-1.4,3.5-2.1,5.7-2.1
		c1.4,0,2.7,0,4.1,0c1.3,0,1.8,0.5,1.8,1.8C37.5,28.7,37.5,30.6,37.5,32.5z M16.5,7c0,4,0,8,0,12c1.1,0,2.1,0,3.2,0
		c1.9,0,3.5,0.6,5,1.7c0.3,0.2,0.5,0.4,0.8,0.6c0.1,0,0.1,0,0.1,0c0.1-0.1,0.3-0.2,0.4-0.3c1.1-0.9,2.4-1.6,3.8-1.8
		c0.9-0.1,1.9-0.1,2.8-0.2c0.6,0,1.2,0,1.9,0c0-1.5,0-3,0-4.5c-0.4,0-0.8,0-1.2,0c-0.4,0-0.7,0-1.1,0c0,0,0,0.1-0.1,0.1
		c0.1,0.1,0.3,0.2,0.4,0.3c0.6,0.6,0.6,1.6,0,2.1c-0.6,0.6-1.5,0.6-2.1,0c-1-1-2-2-3-3c-0.6-0.6-0.6-1.5,0-2.1c1-1,2-2,3-3
		c0.6-0.6,1.5-0.5,2.1,0c0.6,0.6,0.6,1.5,0.1,2.1c-0.1,0.1-0.3,0.3-0.4,0.5c0.8,0,1.5,0,2.3,0c0-1.5,0-3,0-4.5c-1.1,0-2.2,0-3.2,0
		c-1.1,0-2.1,0.3-3,1c-0.6,0.5-1.1,1-1.7,1.5c-0.6,0.6-1.5,0.6-2.2,0c-0.4-0.4-0.8-0.8-1.2-1.2c-0.9-0.8-1.9-1.3-3.1-1.4
		C18.9,7,17.7,7,16.5,7z M16.5,40c1.1,0,2.1,0,3,0c2.1,0,3.9,0.7,5.5,2.1c0.1,0.1,0.3,0.2,0.4,0.3c0.2-0.1,0.3-0.3,0.5-0.4
		c1.3-1.1,2.7-1.8,4.4-1.9C31.6,40,32.8,40,34,40c0.2,0,0.3,0,0.5,0c0-4,0-8,0-12c-1.1,0-2.1,0-3.1,0c-1.2,0-2.3,0.4-3.2,1.1
		c-0.5,0.4-1,0.9-1.5,1.3c-0.7,0.7-1.6,0.7-2.3,0c-0.4-0.4-0.7-0.7-1.1-1.1c-1.1-1-2.3-1.4-3.7-1.4c-0.9,0-1.7,0-2.6,0
		c-0.1,0-0.3,0-0.4,0c0,1.5,0,3,0,4.4c0.8,0,1.5,0,2.3,0c-0.2-0.2-0.3-0.3-0.4-0.5c-0.5-0.6-0.5-1.5,0-2c0.6-0.6,1.5-0.6,2.1-0.1
		c1.1,1,2.1,2.1,3.1,3.1c0.5,0.6,0.5,1.4,0,2c-1,1.1-2.1,2.1-3.1,3.1c-0.6,0.6-1.5,0.5-2-0.1c-0.6-0.6-0.6-1.5,0-2.1
		c0.1-0.1,0.3-0.3,0.4-0.5c-0.8,0-1.6,0-2.3,0C16.5,37,16.5,38.5,16.5,40z"/>
</g>
</svg>
