<svg width="61" height="62" viewBox="0 0 61 62" fill="none" xmlns="http://www.w3.org/2000/svg">
<path d="M56.9596 44.3547L56.1064 45.0964C54.1908 46.6843 52.0348 47.947 49.687 48.8579C39.0063 52.9981 27.1286 48.6374 21.3969 39.081L21.4058 39.0543L21.3771 39.0476C20.6783 37.8761 20.0699 36.6267 19.5672 35.3061C17.3363 29.431 17.5016 23.0303 20.0368 17.2822C22.5719 11.5341 27.1683 7.12891 32.9815 4.87509C33.634 4.62121 34.2953 4.3985 34.9611 4.20697L41.4026 3.305L44.8989 3.30945L41.59 2.03555C34.5268 -0.68818 26.7494 -0.677045 19.6885 2.06005C11.5804 5.20248 5.54896 11.4673 2.4186 18.9748C1.58311 19.1307 0.948217 19.8701 0.948217 20.7609C0.948217 21.2019 1.10253 21.6028 1.36045 21.919C-0.5861 28.313 -0.513352 35.384 2.03723 42.0987C2.60378 43.5886 3.27614 45.0184 4.0433 46.3814C3.78097 46.7333 3.62445 47.1698 3.62445 47.6442C3.62445 48.8067 4.55695 49.751 5.70989 49.751C5.87743 49.751 6.04056 49.7287 6.19708 49.6909C9.28555 53.831 13.3793 57.1383 18.1983 59.3052C22.1906 61.1002 26.4232 62.0022 30.6668 62.0022C34.3791 62.0022 38.0981 61.3118 41.6671 59.9288C48.7281 57.1917 54.517 51.9424 57.967 45.1476L59.5873 41.9584L56.9596 44.3547ZM50.1544 50.0806C50.2932 50.0271 50.4277 49.9715 50.5644 49.9136L47.703 52.4012L38.9666 54.978C38.7087 54.6283 38.3317 54.3744 37.8953 54.2809L36.7159 51.2788C41.0763 52.1295 45.7123 51.8021 50.1544 50.0806ZM36.5902 54.5103C36.3742 54.6439 36.1868 54.8221 36.0435 55.0336L28.039 53.7753L35.4747 51.6707L36.5902 54.5103ZM34.2336 50.6619L26.8839 52.742C26.5576 52.2743 26.0484 51.9469 25.4598 51.8667L22.3471 42.6889C25.4708 46.5061 29.6351 49.2543 34.2336 50.6619ZM24.1702 52.1095C24.0489 52.1763 23.9365 52.2565 23.8329 52.3455L18.562 48.6263L20.6298 41.6666L24.1702 52.1095ZM17.6052 47.2811L12.4931 38.6734C12.6121 38.5465 12.7179 38.404 12.8039 38.2481L19.77 39.9896L17.6052 47.2811ZM3.24308 36.5532L8.30676 28.7629L9.77715 35.5087C9.45309 35.7426 9.19737 36.0655 9.04747 36.4441L3.24308 36.5532ZM13.3153 15.8034L16.7918 24.8499C16.6551 26.5402 16.6904 28.244 16.902 29.9321L9.42884 26.7407L13.3153 15.8034ZM18.3548 35.7715C18.7295 36.7559 19.1594 37.7024 19.6378 38.6088L13.0486 36.9608C12.9207 35.9363 12.0654 35.1413 11.0227 35.1212L9.51261 28.2017L17.1401 31.4599C17.4157 32.9164 17.8191 34.3573 18.3548 35.7715ZM18.8508 16.7455C18.0748 18.5071 17.5105 20.3267 17.1555 22.1751L14.5168 15.3068C14.9709 14.9215 15.2597 14.3425 15.2597 13.6944C15.2597 13.5073 15.2332 13.3269 15.1869 13.1532L23.7646 5.76593L29.7144 4.933C24.9043 7.52533 21.1038 11.6321 18.8508 16.7455ZM20.1536 3.28495C23.5463 1.96874 27.1132 1.31175 30.68 1.31175C33.1115 1.31175 35.5431 1.61686 37.9195 2.22931C36.8393 2.38298 35.7679 2.61237 34.712 2.91303L23.4846 4.48535L18.6678 3.91076C19.1528 3.69028 19.6488 3.48094 20.1536 3.28495ZM16.5405 4.97754L21.937 5.62117L14.4727 12.0486C14.1156 11.7613 13.6658 11.5898 13.1765 11.5898C12.4534 11.5898 11.8185 11.9617 11.4437 12.5252L8.58673 11.4383C10.8 8.87941 13.4719 6.67681 16.5405 4.97754ZM11.0976 13.7946C11.1307 14.4984 11.5033 15.1108 12.0544 15.4694L8.36628 25.8454L4.42909 21.4001C4.50404 21.2019 4.54592 20.9859 4.54592 20.7609C4.54592 20.1195 4.21746 19.5583 3.72145 19.2354C4.74874 16.8346 6.08685 14.5674 7.70494 12.5073L11.0976 13.7946ZM1.79033 36.4018C0.926172 31.7049 1.22598 26.9723 2.52442 22.5627C2.59717 22.5716 2.67212 22.5782 2.74707 22.5782C3.03806 22.5782 3.31362 22.507 3.55611 22.3823L7.79312 27.1638L1.79033 36.4018ZM2.10116 37.8873L8.96811 37.7581C9.20178 38.6623 10.013 39.3304 10.983 39.3304C11.1087 39.3304 11.2299 39.3171 11.3489 39.297L13.1963 42.406L7.05241 46.034C6.68868 45.7244 6.22133 45.5373 5.70768 45.5373C5.50046 45.5373 5.29985 45.5685 5.11247 45.6264C4.40263 44.3525 3.77656 43.0185 3.24969 41.6288C2.78014 40.3905 2.39876 39.1411 2.10116 37.8873ZM7.30813 48.9915C7.61015 48.6263 7.79312 48.1564 7.79312 47.6419C7.79312 47.4727 7.77107 47.3079 7.7336 47.1497L13.8642 43.5307L16.9924 48.7956L12.0411 53.9491C10.271 52.4903 8.68814 50.8267 7.30813 48.9915ZM18.7251 58.1048C16.6992 57.1939 14.8056 56.0715 13.0684 54.7619L17.8852 49.7465L23.1517 53.4635C23.1142 53.6194 23.0944 53.782 23.0944 53.9491C23.0944 54.3588 23.2112 54.7397 23.4118 55.0626L20.7114 58.9132C20.0456 58.6705 19.3821 58.401 18.7251 58.1048ZM21.9988 59.3498L24.4127 55.9067C24.6508 56.0024 24.9087 56.0559 25.1798 56.0559C25.9756 56.0559 26.6679 55.6038 27.0184 54.9423L35.7503 56.3165C35.7812 56.5369 35.8517 56.7463 35.9531 56.9334L32.1195 60.6504C28.7158 60.8219 25.2989 60.3876 21.9988 59.3498ZM41.202 58.7017C38.9093 59.5903 36.5549 60.1805 34.1785 60.4722L36.9584 57.7774C37.1369 57.8376 37.3287 57.871 37.5271 57.871C38.4574 57.871 39.2224 57.1561 39.3149 56.243L48.3401 53.5816L54.7375 48.0205C51.3955 52.84 46.7043 56.5681 41.202 58.7017Z" fill="url(#paint0_linear_8_26)"/>
<path d="M27.5957 33.6937C28.376 33.099 31.6541 30.8185 31.2022 29.7562C30.4901 28.0836 19.5295 27.5269 19.5295 27.5269C19.5295 27.5269 31.1052 27.8721 31.7291 25.7029C32.2207 23.9947 27.4832 20.7788 27.4832 20.7788C27.4832 20.7788 33.3449 23.8165 34.2554 22.8789C35.1372 21.9703 33.3978 17.5517 33.3978 17.5517C33.3978 17.5517 35.7015 21.9458 37.1719 21.7275C38.7702 21.4914 39.383 10.6388 39.383 10.6388C39.383 10.6388 38.9399 21.781 40.1502 21.9992C41.3229 22.2108 43.135 19.3623 43.135 19.3623C43.135 19.3623 42.024 22.311 42.6765 23.046C43.4459 23.9123 48.7388 20.7209 51.8846 18.0016C48.752 20.9146 44.0741 24.4735 44.3321 25.4512C44.8832 27.5335 60.9516 25.086 60.9516 25.086C60.9516 25.086 45.0948 26.999 44.8038 29.1059C44.6671 30.1058 51.6377 35.0188 51.6377 35.0188C51.6377 35.0188 44.0741 30.7561 43.2475 31.7717C42.348 32.8763 48.6352 42.3905 48.6352 42.3905C48.6352 42.3905 41.3648 32.6069 39.7004 33.4019C38.5519 33.9498 37.7693 41.7001 37.7693 41.7001C37.7693 41.7001 37.0352 33.9119 35.7037 33.6759C34.2885 33.4242 29.9875 39.9073 29.9875 39.9073C29.9875 39.9073 34.0371 33.2928 32.7916 32.0924C32.0333 31.3641 27.5957 33.6937 27.5957 33.6937Z" fill="url(#paint1_linear_8_26)"/>
<path d="M30.8274 36.5622C31.3499 35.7448 33.6249 32.5066 32.8467 31.6759C31.6254 30.3686 21.2732 33.6113 21.2732 33.6113C21.2732 33.6113 32.1236 29.9611 31.9737 27.7362C31.8547 25.9835 26.3832 24.6272 26.3832 24.6272C26.3832 24.6272 32.8401 25.4334 33.367 24.253C33.8784 23.1061 30.7811 19.6073 30.7811 19.6073C30.7811 19.6073 34.3964 22.8901 35.6839 22.1863C37.0859 21.418 34.0063 11.1466 34.0063 11.1466C34.0063 11.1466 37.3416 21.6295 38.5365 21.418C39.6938 21.2131 40.4191 17.9504 40.4191 17.9504C40.4191 17.9504 40.3794 21.0661 41.2325 21.5226C42.2378 22.0638 46.0736 17.2867 48.0752 13.6877C46.1507 17.4626 43.0093 22.3689 43.5781 23.1863C44.7884 24.9278 58.8661 17.1464 58.8661 17.1464C58.8661 17.1464 44.806 24.3622 45.2447 26.4133C45.4541 27.3866 53.5688 29.5513 53.5688 29.5513C53.5688 29.5513 45.1234 28.1928 44.698 29.4199C44.235 30.7517 53.2646 37.4174 53.2646 37.4174C53.2646 37.4174 43.2342 30.8408 41.96 32.1459C41.0782 33.05 42.9586 40.5064 42.9586 40.5064C42.9586 40.5064 39.6607 33.5356 38.3469 33.7739C36.9492 34.0277 35.1394 41.513 35.1394 41.513C35.1394 41.513 36.6715 33.9899 35.1129 33.3039C34.1606 32.8808 30.8274 36.5622 30.8274 36.5622Z" fill="url(#paint2_linear_8_26)"/>
<path d="M32.7475 33.932C33.1267 33.3396 34.7712 30.9967 34.2091 30.3976C33.3251 29.4511 25.8365 31.7962 25.8365 31.7962C25.8365 31.7962 33.6844 29.1549 33.5764 27.5469C33.4904 26.2797 29.5312 25.2975 29.5312 25.2975C29.5312 25.2975 34.2025 25.8788 34.5816 25.0258C34.9542 24.1974 32.7123 21.6652 32.7123 21.6652C32.7123 21.6652 35.3268 24.0392 36.2571 23.5292C37.2711 22.9747 35.0446 15.5451 35.0446 15.5451C35.0446 15.5451 37.4563 23.1284 38.3226 22.9725C39.1581 22.8232 39.6828 20.4647 39.6828 20.4647C39.6828 20.4647 39.6542 22.7186 40.2714 23.0482C40.9989 23.4401 43.7721 19.9859 45.2205 17.3825C43.8294 20.1129 41.5566 23.6606 41.9667 24.253C42.8418 25.5136 53.0243 19.8835 53.0243 19.8835C53.0243 19.8835 42.8528 25.1016 43.1725 26.587C43.3224 27.293 49.1929 28.8564 49.1929 28.8564C49.1929 28.8564 43.0843 27.8743 42.7757 28.7607C42.4406 29.7228 48.9725 34.5444 48.9725 34.5444C48.9725 34.5444 41.7175 29.7874 40.7939 30.7316C40.1568 31.3842 41.5169 36.7782 41.5169 36.7782C41.5169 36.7782 39.1317 31.7383 38.1794 31.9098C37.1697 32.0924 35.8602 37.5065 35.8602 37.5065C35.8602 37.5065 36.9669 32.0657 35.8426 31.569C35.1592 31.2684 32.7475 33.932 32.7475 33.932Z" fill="url(#paint3_linear_8_26)"/>
<path d="M35.1085 32.5267C35.3709 32.1191 36.504 30.5022 36.116 30.0902C35.5076 29.4377 30.3425 31.0546 30.3425 31.0546C30.3425 31.0546 35.7545 29.2328 35.6795 28.1237C35.62 27.2507 32.8908 26.5737 32.8908 26.5737C32.8908 26.5737 36.1116 26.9768 36.3739 26.3866C36.6296 25.8142 35.0843 24.0682 35.0843 24.0682C35.0843 24.0682 36.8876 25.7051 37.5291 25.3532C38.2279 24.9701 36.6914 19.8478 36.6914 19.8478C36.6914 19.8478 38.3535 25.0771 38.951 24.9701C39.5285 24.8677 39.8901 23.2397 39.8901 23.2397C39.8901 23.2397 39.8702 24.7942 40.2957 25.0214C40.7961 25.2909 42.7096 22.9079 43.7082 21.1128C42.7471 22.9947 41.1819 25.4423 41.4641 25.8499C42.0681 26.7184 49.0893 22.8366 49.0893 22.8366C49.0893 22.8366 42.0769 26.4356 42.2951 27.4578C42.3988 27.9455 46.4462 29.0235 46.4462 29.0235C46.4462 29.0235 42.2334 28.3464 42.0218 28.9566C41.7903 29.6203 46.2941 32.9454 46.2941 32.9454C46.2941 32.9454 41.2921 29.6649 40.655 30.3174C40.2141 30.7673 41.1532 34.4865 41.1532 34.4865C41.1532 34.4865 39.5065 31.01 38.8518 31.1281C38.1551 31.255 37.2513 34.9876 37.2513 34.9876C37.2513 34.9876 38.0141 31.235 37.2381 30.892C36.7707 30.6915 35.1085 32.5267 35.1085 32.5267Z" fill="#EAD386"/>
<path d="M40.4125 32.7471C40.2692 32.4376 39.7512 31.1637 39.3257 31.2327C38.6556 31.3396 37.4299 34.9653 37.4299 34.9653C37.4299 34.9653 38.6335 31.1169 37.9082 30.7405C37.3373 30.4421 35.7324 31.7761 35.7324 31.7761C35.7324 31.7761 37.377 30.0501 37.1234 29.6738C36.8765 29.3063 35.1174 29.5446 35.1174 29.5446C35.1174 29.5446 36.9206 29.117 36.9779 28.607C37.0419 28.0547 33.1774 27.0013 33.1774 27.0013C33.1774 27.0013 37.1631 28.019 37.3549 27.6315C37.5401 27.2551 36.6803 26.4267 36.6803 26.4267C36.6803 26.4267 37.6415 27.0302 37.97 26.8676C38.3557 26.6783 37.6944 24.6561 37.0044 23.3911C37.7649 24.6673 38.6159 26.5113 38.9928 26.5002C39.7953 26.4779 40.4103 20.9079 40.4103 20.9079C40.4103 20.9079 39.6211 26.3665 40.3574 26.6271C40.7057 26.7518 43.1306 24.8009 43.1306 24.8009C43.1306 24.8009 40.8843 26.999 41.1753 27.3554C41.4905 27.7429 45.5159 26.3799 45.5159 26.3799C45.5159 26.3799 41.3031 28.0502 41.4332 28.6693C41.5236 29.0969 44.2527 29.9633 44.2527 29.9633C44.2527 29.9633 41.3693 29.6003 41.1598 30.0279C40.9372 30.4822 42.8793 32.4287 42.8793 32.4287C42.8793 32.4287 40.8666 30.5557 40.3177 30.8786C39.9827 31.0791 40.4125 32.7471 40.4125 32.7471Z" fill="url(#paint4_linear_8_26)"/>
<defs>
<linearGradient id="paint0_linear_8_26" x1="-1.64751" y1="30.3869" x2="62.0202" y2="31.5704" gradientUnits="userSpaceOnUse">
<stop stop-color="#906226"/>
<stop offset="0.1789" stop-color="#DEB352"/>
<stop offset="0.3368" stop-color="#F4EEB1"/>
<stop offset="0.5316" stop-color="#DEB352"/>
<stop offset="0.5712" stop-color="#C59843"/>
<stop offset="0.618" stop-color="#AE7F36"/>
<stop offset="0.6605" stop-color="#A06F2E"/>
<stop offset="0.6947" stop-color="#9B6A2B"/>
<stop offset="0.7284" stop-color="#A37330"/>
<stop offset="0.7832" stop-color="#BA8B3D"/>
<stop offset="0.8521" stop-color="#DEB352"/>
<stop offset="0.8526" stop-color="#DEB352"/>
<stop offset="1" stop-color="#F4EEB1"/>
</linearGradient>
<linearGradient id="paint1_linear_8_26" x1="19.5282" y1="26.5166" x2="60.9505" y2="26.5166" gradientUnits="userSpaceOnUse">
<stop stop-color="#EFD981"/>
<stop offset="0.5269" stop-color="#C7A14B"/>
<stop offset="1" stop-color="#94682F"/>
</linearGradient>
<linearGradient id="paint2_linear_8_26" x1="26.6999" y1="17.0686" x2="59.952" y2="37.3133" gradientUnits="userSpaceOnUse">
<stop stop-color="#EFD981"/>
<stop offset="0.5269" stop-color="#C7A14B"/>
<stop offset="1" stop-color="#94682F"/>
</linearGradient>
<linearGradient id="paint3_linear_8_26" x1="52.0565" y1="32.7999" x2="26.6593" y2="19.3894" gradientUnits="userSpaceOnUse">
<stop stop-color="#EFD981"/>
<stop offset="0.5269" stop-color="#C7A14B"/>
<stop offset="1" stop-color="#94682F"/>
</linearGradient>
<linearGradient id="paint4_linear_8_26" x1="29.1538" y1="33.0263" x2="67.6995" y2="13.8153" gradientUnits="userSpaceOnUse">
<stop stop-color="#EFD981"/>
<stop offset="0.5269" stop-color="#C7A14B"/>
<stop offset="1" stop-color="#94682F"/>
</linearGradient>
</defs>
</svg>
