<svg width="43" height="30" viewBox="0 0 43 30" fill="none" xmlns="http://www.w3.org/2000/svg">
<g clip-path="url(#clip0_286_72)">
<path d="M39.7267 30.0002C27.5777 30.0002 15.4286 30.0002 3.27959 30.0002C2.93967 29.8939 2.59975 29.7814 2.20947 29.6627C6.57809 25.3689 10.8963 21.1252 15.2146 16.8877C16.2973 17.9502 17.4304 19.0627 18.5572 20.1814C20.3008 21.9064 22.7117 21.9064 24.4554 20.1814C25.4815 19.1627 26.5075 18.1377 27.5399 17.1127C27.6469 17.0064 27.7539 16.9127 27.7854 16.8877C32.1288 21.1502 36.4408 25.3877 40.8031 29.6752C40.4065 29.7877 40.0666 29.8939 39.7267 30.0002Z" fill="white"/>
<path d="M0 3.25635C0.119602 2.89385 0.239204 2.53135 0.346216 2.19385C4.68965 6.46885 9.00791 10.7126 13.3387 14.9688C8.99532 19.2376 4.67706 23.4813 0.339921 27.7438C0.251793 27.4876 0.125897 27.1188 0.00629483 26.7501C0 18.9188 0 11.0876 0 3.25635Z" fill="white"/>
<path d="M2.1843 0.306067C2.68159 0.199817 3.10964 0.0935668 3.53768 0.0185668C3.71394 -0.0126832 3.89649 0.00606679 4.07904 0.00606679C15.693 0.00606679 27.307 -0.000183206 38.9272 0.0123168C39.5252 0.0123168 40.1295 0.149817 40.7276 0.224817C40.7338 0.274817 40.7401 0.324817 40.7464 0.374817C40.6583 0.468567 40.5765 0.568567 40.4821 0.662317C34.5334 6.58107 28.5848 12.4998 22.6362 18.4186C21.9186 19.1311 21.0688 19.1311 20.3512 18.4123C14.4026 12.4936 8.45395 6.57482 2.50533 0.656067C2.4235 0.581067 2.34167 0.487317 2.1843 0.306067Z" fill="white"/>
<path d="M29.6361 15.0063C33.9921 10.7251 38.3104 6.48135 42.6412 2.2251C42.9056 2.71885 43.0063 3.30635 43.0063 3.91885C43.0063 11.3001 43.0063 18.6876 43 26.0688C43 26.3751 42.9748 26.6813 42.9119 26.9751C42.8552 27.2688 42.7356 27.5438 42.6538 27.8001C38.3104 23.5376 33.9921 19.2938 29.6361 15.0063Z" fill="white"/>
</g>
<defs>
<clipPath id="clip0_286_72">
<rect width="43" height="30" fill="white"/>
</clipPath>
</defs>
</svg>
