<?xml version="1.0" encoding="utf-8"?>
<!-- Generator: Adobe Illustrator 25.0.0, SVG Export Plug-In . SVG Version: 6.00 Build 0)  -->
<svg version="1.1" id="Layer_1" xmlns="http://www.w3.org/2000/svg" xmlns:xlink="http://www.w3.org/1999/xlink" x="0px" y="0px"
	 viewBox="0 0 51 50" style="enable-background:new 0 0 51 50;" xml:space="preserve">
<style type="text/css">
	.st0{fill:#E6C773;}
	.st1{clip-path:url(#SVGID_2_);}
</style>
<ellipse class="st0" cx="25.5" cy="25" rx="25.4" ry="25"/>
<g>
	<defs>
		<rect id="SVGID_1_" x="5.7" y="5.5" width="39.5" height="39"/>
	</defs>
	<clipPath id="SVGID_2_">
		<use xlink:href="#SVGID_1_"  style="overflow:visible;"/>
	</clipPath>
	<g class="st1">
		<path d="M24.7,44.5c-0.8-0.5-1.5-0.9-2.3-1.4c-0.2-0.1-0.3-0.3-0.3-0.5c0-3.8,0-7.5,0-11.3c0-0.3,0.1-0.4,0.3-0.5
			c0.1,0,0.2-0.1,0.3-0.1c2.3-1.1,2.3-1.1,3.8-3c0.1-0.1,0.2-0.4,0.2-0.5c0-1.1,0-2.2,0-3.2c0-1.4,0.9-2.1,2.3-1.8
			c2,0.4,3.3,1.9,3.3,4c0,1,0,2.1,0,3.1c0,0.1,0,0.3,0,0.5c0.6,0,1.2,0,1.7,0c1.8,0.1,3.3,1.2,3.7,3c0.1,0.4,0.1,0.7,0.1,1.1
			c0,2.2,0,4.4,0,6.7c0,2.2-1.2,3.6-3.4,4.1c0,0-0.1,0-0.1,0.1C31.1,44.5,27.9,44.5,24.7,44.5z"/>
		<path d="M5.7,26.5c0.2-0.6,0.4-1.2,0.7-1.8c0.9-1.5,2.3-2.3,4.1-2.3c1.8,0,3.6,0,5.4,0c2.7,0,4.8,2,4.9,4.6c0,0.5,0,1,0,1.6
			c-2.5,0-4.9,0-7.4,0c0,2,0,3.9,0,5.8c-0.1,0-0.2,0-0.3,0c-2.4,0-4.9,0-7.3,0c-0.1,0-0.1,0-0.2,0C5.7,31.8,5.7,29.2,5.7,26.5z"/>
		<path d="M13.3,9.1c3.1,0,5.6,2.5,5.6,5.5c0,3-2.5,5.5-5.6,5.5c-3.1,0-5.5-2.5-5.5-5.5C7.7,11.5,10.2,9.1,13.3,9.1z"/>
		<path d="M19.8,42.9c-1.3,0-2.6,0-3.9,0c0-4,0-8,0-12c1.3,0,2.6,0,3.9,0C19.8,35,19.8,38.9,19.8,42.9z"/>
		<path d="M29.6,15.8c-1.4-2.1-3.1-3.8-5.2-5.1c2.1-1.4,3.8-3,5.2-5.1c1.4,2.1,3.1,3.8,5.2,5.1C32.6,12,30.9,13.7,29.6,15.8z"/>
		<path d="M40.1,13.8c1.3,2,3,3.7,5.2,5c-2.1,1.4-3.8,3-5.2,5.1c-1.4-2.1-3.1-3.8-5.1-5.1c0.9-0.8,1.9-1.5,2.8-2.4
			C38.6,15.7,39.3,14.8,40.1,13.8z"/>
	</g>
</g>
</svg>
