<svg width="72" height="72" viewBox="0 0 72 72" fill="none" xmlns="http://www.w3.org/2000/svg">
<path d="M23.994 13.029C24.5294 13.029 25.055 13.1723 25.5163 13.444C25.9776 13.7156 26.3578 14.1058 26.6175 14.574L30.2865 21.183C30.5231 21.6093 30.6522 22.0869 30.6626 22.5743C30.6731 23.0618 30.5646 23.5444 30.3465 23.9805L26.8125 31.0515C26.8125 31.0515 27.837 36.318 32.124 40.6065C36.4125 44.8935 41.661 45.9015 41.661 45.9015L48.7305 42.366C49.1668 42.1477 49.6497 42.039 50.1374 42.0495C50.6252 42.0599 51.103 42.1892 51.5295 42.426L58.1595 46.113C58.6266 46.3731 59.0158 46.7533 59.2866 47.2143C59.5575 47.6753 59.7002 48.2003 59.7 48.735V56.3445C59.7 60.2205 56.1 63.0195 52.428 61.7805C44.886 59.235 33.1785 54.39 25.758 46.9695C18.339 39.549 13.4925 27.843 10.9485 20.2995C9.7095 16.629 12.5085 13.029 16.3845 13.029H23.994Z" fill="#E6C773" stroke="#E6C773" stroke-width="4.33333" stroke-linejoin="round"/>
<path d="M58.1025 13.929L45.375 26.655M45.375 13.929L58.1025 26.6565" stroke="#E6C773" stroke-width="4.33333" stroke-linecap="round" stroke-linejoin="round"/>
</svg>
