<svg width="30" height="30" viewBox="0 0 30 30" fill="none" xmlns="http://www.w3.org/2000/svg">
<g clip-path="url(#clip0_284_53)">
<path d="M6.9375 0C7.78125 0.2125 8.3125 0.7875 8.775 1.4875C9.88125 3.14375 10.9937 4.79375 11.8562 6.59375C12.0687 7.03125 12.2312 7.49375 12.3812 7.9625C12.5687 8.53125 12.4562 9.08125 12.05 9.50625C11.5625 10.0188 11.0312 10.4875 10.5 10.9563C9.8125 11.5563 9.79375 11.55 10.1437 12.375C11.7062 16.0437 14.3437 18.6 18.0562 20.05C18.3812 20.175 18.5687 20.1375 18.7875 19.8625C19.2187 19.3188 19.6875 18.8 20.1625 18.2812C20.8 17.5812 21.5687 17.3813 22.45 17.7563C23.0875 18.0312 23.75 18.2812 24.3375 18.6437C25.9187 19.6063 27.4687 20.6187 29.025 21.6313C29.5125 21.95 29.8062 22.425 29.95 22.9938C30.0312 23.3063 30.0062 23.6 29.85 23.8687C29.65 24.2062 29.45 24.5562 29.1937 24.85C27.5312 26.7625 25.575 28.3125 23.4375 29.6625C22.7 30.125 21.975 30.025 21.2125 29.875C18.525 29.35 16.0937 28.2125 13.8125 26.7375C9.05 23.65 5.20625 19.6625 2.40625 14.7C1.29375 12.7312 0.4625 10.65 0.09375 8.4C0.0625 8.25 0.03125 8.1 0 7.95C0 7.74375 0 7.53125 0 7.325C0.1 7.1375 0.19375 6.94375 0.3 6.75625C1.33125 4.94375 2.63125 3.34375 4.06875 1.85C4.78125 1.10625 5.51875 0.3875 6.5 0C6.65 0 6.79375 0 6.9375 0Z" fill="white"/>
</g>
<defs>
<clipPath id="clip0_284_53">
<rect width="30" height="30" fill="white"/>
</clipPath>
</defs>
</svg>
