<svg width="43" height="42" viewBox="0 0 43 42" fill="none" xmlns="http://www.w3.org/2000/svg">
<g clip-path="url(#clip0_185_62)">
<path d="M21.8771 42C21.6239 42 21.3706 42 21.1174 42C20.5016 41.4962 19.8678 41.0117 19.2759 40.4827C18.1566 39.4826 16.8695 38.9685 15.3471 38.995C13.9222 39.0202 12.4957 39.0024 11.0707 38.9995C9.93646 38.998 9.33261 38.4115 9.33112 37.3035C9.32812 35.538 9.33112 33.774 9.33112 32.0086C9.33112 31.8446 9.33112 31.6806 9.33112 31.4989C8.24329 31.4989 7.23038 31.5092 6.21748 31.4974C2.92703 31.4605 0.228436 28.819 0.211954 25.5806C0.190976 21.5193 0.192475 17.458 0.211954 13.3982C0.225439 10.702 2.15686 8.25256 4.84046 7.7148C6.06314 7.46956 7.35775 7.56264 8.61938 7.5065C8.84864 7.49615 9.07939 7.50502 9.33112 7.50502C9.33112 5.51648 9.32962 3.59591 9.33261 1.67681C9.33261 0.613111 9.93646 0.00886918 10.9988 0.00739182C12.5197 0.00443709 14.039 0.00591445 15.5599 0.00886918C17.6412 0.0133013 19.4632 0.698798 21.0365 2.03729C21.1878 2.16582 21.3467 2.28697 21.4995 2.40959C21.6283 2.30913 21.7198 2.24708 21.8022 2.17469C23.4908 0.670729 25.4747 -0.0369291 27.7477 0.00148236C29.1412 0.0251202 30.5347 0.00443709 31.9282 0.00591445C33.0595 0.00739182 33.6619 0.595383 33.6634 1.70488C33.6664 3.47033 33.6634 5.23431 33.6634 6.99976C33.6634 7.16375 33.6634 7.32626 33.6634 7.50502C34.7542 7.50502 35.7671 7.49615 36.78 7.5065C39.4876 7.53457 41.8865 9.37388 42.5817 11.946C42.6537 12.2134 42.7196 12.4837 42.7885 12.7526C42.7885 17.2527 42.7885 21.7512 42.7885 26.2513C42.7451 26.4138 42.6986 26.5763 42.6612 26.7403C42.0363 29.534 39.594 31.4812 36.6841 31.4989C35.6907 31.5048 34.6987 31.5004 33.6634 31.5004C33.6634 31.7175 33.6634 31.886 33.6634 32.0544C33.6634 33.8036 33.6649 35.5528 33.6634 37.3035C33.6619 38.4159 33.064 38.998 31.9252 38.9995C30.5782 39.001 29.2311 39.0379 27.8871 38.9906C26.1879 38.93 24.766 39.4885 23.5418 40.6379C23.0203 41.1269 22.4345 41.5479 21.8771 42ZM33.6634 28.5013C33.8956 28.5013 34.0679 28.5013 34.2387 28.5013C35.1573 28.4984 36.0788 28.5442 36.9928 28.4792C38.5031 28.3728 39.7258 27.1067 39.7348 25.616C39.7588 21.54 39.7558 17.4639 39.7363 13.3879C39.7303 12.0893 38.7833 10.835 37.5022 10.64C36.2526 10.4509 34.964 10.5085 33.7173 10.4583C33.6828 10.5971 33.6694 10.6267 33.6694 10.6562C33.6664 12.5458 33.6679 14.4353 33.6634 16.3249C33.6604 17.4093 33.058 17.9987 31.9537 18.0017C30.4658 18.0046 28.9764 18.0076 27.4885 18.0017C26.2209 17.9958 25.0866 18.3681 24.1142 19.1718C23.6167 19.5825 23.1477 20.0257 22.6757 20.4659C21.9085 21.1825 21.0844 21.1854 20.3307 20.4704C19.9651 20.1247 19.5965 19.7819 19.2234 19.4451C18.1356 18.4612 16.862 17.9751 15.3771 17.9987C13.9207 18.0209 12.4627 18.0061 11.0063 18.0032C9.94695 18.0002 9.33561 17.3901 9.33411 16.3367C9.33112 14.7899 9.33261 13.2446 9.33261 11.6978C9.33261 11.3122 9.33261 10.9266 9.33261 10.5055C8.28524 10.5055 7.29032 10.4967 6.29689 10.507C4.58274 10.5262 3.25817 11.8234 3.25367 13.5179C3.24169 17.5009 3.24468 21.4824 3.25217 25.4653C3.25517 26.9752 4.2516 28.2428 5.75897 28.4215C6.92172 28.5604 8.11593 28.4496 9.33261 28.4496C9.33261 28.2782 9.33261 28.1083 9.33261 27.9399C9.33261 26.1745 9.32962 24.4105 9.33411 22.6451C9.33711 21.6168 9.94845 21.0067 10.9808 21.0037C12.5167 20.9993 14.0525 20.9993 15.5899 21.0052C17.6531 21.0126 19.4602 21.6966 21.023 23.0203C21.1758 23.1503 21.3347 23.2729 21.498 23.4059C21.6388 23.2951 21.7542 23.2153 21.8591 23.1222C23.5043 21.6774 25.4283 20.9771 27.6324 20.9993C29.0259 21.0126 30.4194 21.0022 31.8129 21.0022C33.106 21.0022 33.6649 21.5503 33.6649 22.8209C33.6649 24.6927 33.6634 26.5645 33.6634 28.5013ZM12.4073 3.02122C12.4073 7.03522 12.4073 11.0078 12.4073 15.0056C13.5011 15.0056 14.5605 14.9982 15.6198 15.0071C17.5033 15.0218 19.195 15.5906 20.6754 16.7474C20.9466 16.9587 21.2103 17.1773 21.462 17.3782C21.528 17.3576 21.5639 17.3561 21.5864 17.3384C21.7227 17.2305 21.8546 17.1197 21.988 17.0104C23.1222 16.0693 24.3869 15.3616 25.8688 15.1637C26.8053 15.0396 27.7597 15.0396 28.7082 15.0071C29.3345 14.9849 29.9639 15.0026 30.5857 15.0026C30.5857 13.4706 30.5857 11.9962 30.5857 10.5026C30.1706 10.5026 29.7915 10.5026 29.4125 10.5026C29.0483 10.5026 28.6827 10.5026 28.3186 10.5026C28.3007 10.5499 28.2827 10.5957 28.2647 10.6429C28.3906 10.739 28.5299 10.8217 28.6378 10.934C29.2536 11.5752 29.2491 12.4852 28.6363 13.0732C28.0384 13.6479 27.1259 13.6538 26.5011 13.051C25.4822 12.0686 24.4738 11.0743 23.4774 10.0697C22.8615 9.44923 22.845 8.57906 23.4489 7.96596C24.4648 6.93623 25.4942 5.91833 26.5401 4.91815C27.1439 4.34198 28.0549 4.37005 28.6408 4.93588C29.2252 5.50023 29.2506 6.38665 28.7007 7.0101C28.5719 7.15636 28.4355 7.29523 28.2677 7.47399C29.0903 7.47399 29.8395 7.47399 30.5842 7.47399C30.5842 5.97004 30.5842 4.4971 30.5842 3.00792C29.4724 3.00792 28.3965 3.00053 27.3207 3.01087C26.2104 3.02122 25.19 3.33294 24.3224 4.02139C23.7201 4.50006 23.1612 5.03486 22.5873 5.54751C21.931 6.13402 21.0485 6.13402 20.4027 5.5416C19.9846 5.15896 19.5771 4.76598 19.153 4.39073C18.254 3.59591 17.2171 3.07292 15.9989 3.0286C14.8152 2.98871 13.627 3.02122 12.4073 3.02122ZM12.3923 36.0004C13.4592 36.0004 14.4721 36.0034 15.485 36.0004C17.6187 35.9945 19.4842 36.6889 21.0859 38.0761C21.2133 38.1869 21.3496 38.2874 21.504 38.41C21.6838 38.2608 21.8381 38.1308 21.994 38.0023C23.2856 36.9326 24.739 36.1969 26.4397 36.0817C27.6534 35.999 28.876 36.0241 30.0942 36.0019C30.2605 35.999 30.4284 36.0019 30.5812 36.0019C30.5812 31.9628 30.5812 27.9902 30.5812 24.0057C29.5128 24.0057 28.4835 24.0072 27.4541 24.0057C26.2209 24.0028 25.1121 24.3588 24.1621 25.1374C23.6512 25.5555 23.1672 26.0075 22.6847 26.4581C21.9385 27.1554 21.065 27.1658 20.3278 26.4729C19.9487 26.1183 19.5696 25.7638 19.183 25.4166C18.1176 24.4607 16.8695 23.9776 15.4205 24.0028C14.55 24.0175 13.6779 24.0042 12.8074 24.0072C12.671 24.0072 12.5347 24.0234 12.4103 24.0323C12.4103 25.5436 12.4103 27.0166 12.4103 28.4821C13.185 28.4821 13.9222 28.4821 14.7358 28.4821C14.5545 28.2901 14.4136 28.1512 14.2848 28.0035C13.7498 27.3933 13.7693 26.529 14.3267 25.9632C14.8976 25.3841 15.8236 25.3294 16.4245 25.8997C17.4973 26.9176 18.5492 27.9577 19.5831 29.014C20.124 29.568 20.1375 30.4219 19.5995 30.9744C18.5582 32.0455 17.4943 33.0959 16.4095 34.1227C15.8221 34.6782 14.9141 34.6235 14.3477 34.068C13.7663 33.4993 13.7439 32.6114 14.2983 31.9938C14.4271 31.8505 14.5665 31.7146 14.7388 31.5373C13.9042 31.5373 13.1535 31.5373 12.3953 31.5373C12.3923 33.025 12.3923 34.4876 12.3923 36.0004Z" fill="black"/>
</g>
<defs>
<clipPath id="clip0_185_62">
<rect width="42.5915" height="42" fill="white" transform="translate(0.197205)"/>
</clipPath>
</defs>
</svg>
