<?xml version="1.0" encoding="utf-8"?>
<!-- Generator: Adobe Illustrator 25.0.0, SVG Export Plug-In . SVG Version: 6.00 Build 0)  -->
<svg version="1.1" id="Layer_1" xmlns="http://www.w3.org/2000/svg" xmlns:xlink="http://www.w3.org/1999/xlink" x="0px" y="0px"
	 viewBox="0 0 51 50" style="enable-background:new 0 0 51 50;" xml:space="preserve">
<style type="text/css">
	.st0{fill:#E6C773;}
</style>
<ellipse class="st0" cx="25.5" cy="25" rx="25.4" ry="25"/>
<path d="M35.1,27.6c0.6,0,1.1,0.1,1.7,0.2v-5.3c0-0.9-0.4-1.8-1-2.4s-1.5-1-2.4-1h-1.7v-3.4c0-4.7-3.8-8.6-8.4-8.6
	c-4.6,0-8.4,3.8-8.4,8.6V19h-1.7c-0.9,0-1.7,0.4-2.4,1c-0.6,0.6-1,1.5-1,2.4v17.1c0,1.9,1.5,3.4,3.4,3.4h13.1
	c-0.9-1.5-1.4-3.3-1.4-5.1C25.1,32.2,29.6,27.6,35.1,27.6z M18.4,15.6c0-2.8,2.2-5.1,5-5.1s5,2.3,5,5.1V19H18.4V15.6z M23.4,34.4
	c-0.7,0-1.3-0.2-1.9-0.6c-0.6-0.4-1-0.9-1.2-1.5c-0.3-0.6-0.3-1.3-0.2-2c0.1-0.7,0.4-1.3,0.9-1.8c0.5-0.5,1.1-0.8,1.7-0.9
	c0.7-0.1,1.3-0.1,1.9,0.2c0.6,0.3,1.1,0.7,1.5,1.3c0.4,0.6,0.6,1.2,0.6,1.9C26.8,32.9,25.3,34.4,23.4,34.4z M41,34.9L33,43l-4.6-5.1
	l1.9-2l2.7,2.7l6-6.2L41,34.9z"/>
</svg>
