<svg width="42" height="40" viewBox="0 0 42 40" fill="none" xmlns="http://www.w3.org/2000/svg">
<g clip-path="url(#clip0_185_107)">
<path d="M32.0347 39.9999C30.8532 39.3651 29.6759 38.7183 28.4863 38.0995C28.25 37.979 27.9608 37.9027 27.6919 37.9027C21.2593 37.8906 14.8226 37.8946 8.39 37.8946C6.22679 37.8946 4.90686 36.5889 4.90686 34.4475C4.90686 30.4137 4.90686 26.376 4.90686 22.3422C4.90686 22.1694 4.90686 21.9927 4.90686 21.7516C4.56873 21.7516 4.25097 21.7516 3.9332 21.7516C2.03071 21.7396 0.645604 20.3816 0.64153 18.5134C0.633382 15.8215 0.637456 13.1337 0.64153 10.4418C0.64153 8.44907 1.76999 7.21565 3.84358 6.99066C3.84358 6.54871 3.84358 6.10275 3.84358 5.65277C3.85173 2.4105 6.45085 -0.092509 9.73845 0.00391528C11.3069 0.0521274 12.635 0.674868 13.7023 1.81187C13.9019 2.02481 14.0975 2.10918 14.3867 2.10918C19.5605 2.10114 24.7343 2.10114 29.9081 2.10516C32.0428 2.10516 33.3668 3.41894 33.3668 5.53224C33.3668 8.67406 33.3709 11.8199 33.3668 14.9617C33.3668 15.6568 32.9391 16.1269 32.3198 16.1389C31.6843 16.151 31.2443 15.6688 31.2321 14.9577C31.2321 14.8573 31.2321 14.7528 31.2321 14.6524C31.2321 11.6833 31.2321 8.71424 31.2321 5.7492C31.2321 5.64875 31.2321 5.54429 31.2321 5.44385C31.224 4.63228 30.8207 4.22649 30.01 4.21846C29.9366 4.21846 29.8633 4.21846 29.7859 4.21846C25.0561 4.21846 20.3264 4.21846 15.6007 4.21846C15.4256 4.21846 15.2504 4.21846 15.1282 4.21846C15.173 5.17065 15.2178 6.08266 15.2626 7.00673C16.7292 7.13931 17.7762 7.82633 18.261 9.2285C18.3709 9.55394 18.4198 9.91553 18.4198 10.261C18.4321 13.0091 18.4321 15.7572 18.4239 18.5093C18.4198 20.4057 17.0347 21.7596 15.1037 21.7677C12.5983 21.7717 10.0929 21.7677 7.58745 21.7677C7.4245 21.7677 7.26562 21.7677 7.05785 21.7677C7.0497 21.9284 7.03748 22.069 7.03748 22.2056C7.03748 26.3157 7.03748 30.4218 7.03748 34.5318C7.03748 35.4037 7.43672 35.8014 8.30445 35.8014C13.6575 35.8014 19.0065 35.8014 24.3595 35.8014C24.4736 35.8014 24.5836 35.8014 24.775 35.8014C24.6569 35.6447 24.5917 35.5563 24.5225 35.472C23.777 34.5077 23.4022 33.423 23.4022 32.2136C23.4022 28.7464 23.4022 25.2831 23.4022 21.8159C23.4022 21.0726 23.6425 20.7552 24.3636 20.5423C26.8446 19.8111 29.3255 19.0718 31.8106 18.3647C32.1039 18.2803 32.4624 18.2763 32.7598 18.3527C35.2612 19.0035 37.7584 19.6905 40.2598 20.3535C40.716 20.474 41.0012 20.7472 41.1927 21.153C41.1927 25.0702 41.1927 28.9915 41.1927 32.9087C41.1723 32.9489 41.1397 32.985 41.1316 33.0252C40.8138 34.9175 39.722 36.2112 38.0232 37.0911C36.19 38.0433 34.3812 39.0397 32.5643 40.016C32.3891 39.9999 32.2098 39.9999 32.0347 39.9999ZM9.52253 19.6463C11.3435 19.6463 13.1646 19.6463 14.9896 19.6463C15.894 19.6463 16.2892 19.2566 16.2892 18.3647C16.2892 15.705 16.2892 13.0453 16.2892 10.3856C16.2892 9.51778 15.89 9.11601 15.0222 9.11601C11.3639 9.11601 7.7056 9.11601 4.04727 9.11601C3.16732 9.11601 2.77216 9.50974 2.77216 10.3735C2.77216 13.0493 2.76808 15.7211 2.77216 18.3968C2.77216 19.2526 3.17954 19.6423 4.05949 19.6463C5.88051 19.6504 7.70152 19.6463 9.52253 19.6463ZM13.079 6.99467C13.079 6.41613 13.1075 5.87776 13.0749 5.33939C12.9812 3.88499 11.918 2.62344 10.4799 2.22971C9.05404 1.83598 7.53857 2.37033 6.65454 3.54349C5.86421 4.5921 5.94976 5.78134 5.99458 6.99467C8.35741 6.99467 10.6917 6.99467 13.079 6.99467ZM31.4928 29.1361C30.7718 28.6058 30.1037 28.0995 29.4192 27.6134C28.9508 27.2799 28.4619 27.292 28.0708 27.6134C27.5127 28.0674 27.5453 28.8308 28.1645 29.3048C29.02 29.9557 29.8918 30.5905 30.7555 31.2293C31.444 31.7396 31.9002 31.7114 32.5113 31.1088C33.8231 29.8191 35.1308 28.5254 36.4385 27.2357C36.4711 27.2036 36.5037 27.1755 36.5322 27.1433C37.0211 26.6291 37.0536 26.0264 36.6137 25.5845C36.1737 25.1425 35.5463 25.1666 35.0371 25.6488C34.8334 25.8416 34.6379 26.0385 34.4382 26.2353C33.4646 27.1915 32.4909 28.1518 31.4928 29.1361Z" fill="black"/>
<path d="M15.2223 25.9623C13.6375 25.9623 12.0528 25.9623 10.4681 25.9623C9.66553 25.9623 9.16852 25.5525 9.17259 24.8976C9.18074 24.2628 9.6696 23.857 10.4436 23.857C13.6579 23.857 16.8681 23.853 20.0824 23.857C20.9746 23.857 21.5245 24.6324 21.1538 25.3596C20.9338 25.7975 20.5468 25.9663 20.0579 25.9623C18.4528 25.9583 16.8396 25.9623 15.2223 25.9623Z" fill="black"/>
<path d="M15.2671 28.0716C16.8518 28.0716 18.4365 28.0716 20.0213 28.0716C20.7831 28.0716 21.276 28.4974 21.2679 29.1362C21.2597 29.759 20.779 30.1768 20.0416 30.1768C16.8274 30.1808 13.6172 30.1808 10.4029 30.1768C9.66553 30.1768 9.18481 29.759 9.17666 29.1362C9.16852 28.4974 9.66145 28.0756 10.4273 28.0756C12.0406 28.0675 13.6538 28.0716 15.2671 28.0716Z" fill="black"/>
<path d="M24.7958 13.3307C23.7896 13.3307 22.7833 13.3347 21.7771 13.3307C21.0479 13.3267 20.5631 12.9008 20.5631 12.2781C20.5631 11.6553 21.0479 11.2295 21.7771 11.2295C23.8181 11.2254 25.8632 11.2254 27.9042 11.2295C28.6049 11.2295 29.0815 11.6513 29.0937 12.258C29.106 12.8847 28.6212 13.3267 27.9001 13.3307C26.8694 13.3347 25.8306 13.3307 24.7958 13.3307Z" fill="black"/>
<path d="M24.7836 17.5413C23.7774 17.5413 22.7711 17.5453 21.7649 17.5413C21.0397 17.5373 20.5549 17.1033 20.5631 16.4766C20.5712 15.8659 21.0479 15.44 21.7486 15.44C23.8059 15.436 25.8632 15.436 27.9205 15.44C28.6171 15.44 29.0937 15.8739 29.0978 16.4846C29.1019 17.0953 28.6252 17.5373 27.9368 17.5413C26.8816 17.5453 25.8306 17.5413 24.7836 17.5413Z" fill="black"/>
<path d="M8.46374 16.2756C8.46374 16.1752 8.45559 16.0707 8.46374 15.9703C8.51263 15.46 8.40263 15.0864 7.95043 14.7087C6.97271 13.8891 7.02159 12.3945 7.94636 11.5106C8.87927 10.6187 10.3703 10.675 11.238 11.6352C12.0895 12.5793 11.9998 14.0458 10.9895 14.8333C10.6636 15.0864 10.5699 15.3315 10.5903 15.7091C10.6188 16.1912 10.6066 16.6734 10.5944 17.1555C10.5781 17.7983 10.1137 18.2563 9.51072 18.2443C8.92409 18.2322 8.48818 17.7782 8.46781 17.1555C8.45559 16.8582 8.46374 16.5689 8.46374 16.2756Z" fill="black"/>
</g>
<defs>
<clipPath id="clip0_185_107">
<rect width="40.5634" height="40" fill="white" transform="translate(0.633789)"/>
</clipPath>
</defs>
</svg>
