<?xml version="1.0" encoding="utf-8"?>
<!-- Generator: Adobe Illustrator 25.0.0, SVG Export Plug-In . SVG Version: 6.00 Build 0)  -->
<svg version="1.1" id="Layer_1" xmlns="http://www.w3.org/2000/svg" xmlns:xlink="http://www.w3.org/1999/xlink" x="0px" y="0px"
	 viewBox="0 0 51 50" style="enable-background:new 0 0 51 50;" xml:space="preserve">
<style type="text/css">
	.st0{fill:#E6C773;}
</style>
<ellipse class="st0" cx="25.5" cy="25" rx="25.4" ry="25"/>
<g>
	<path d="M36.6,45c-1.2-0.6-2.4-1.3-3.5-1.9c-0.2-0.1-0.5-0.2-0.8-0.2c-6.4,0-12.9,0-19.3,0c-2.2,0-3.5-1.3-3.5-3.4
		c0-4,0-8.1,0-12.1c0-0.2,0-0.3,0-0.6c-0.3,0-0.7,0-1,0c-1.9,0-3.3-1.4-3.3-3.2c0-2.7,0-5.4,0-8.1c0-2,1.1-3.2,3.2-3.5
		c0-0.4,0-0.9,0-1.3c0-3.2,2.6-5.7,5.9-5.6c1.6,0,2.9,0.7,4,1.8C18.5,7,18.7,7.1,19,7.1c5.2,0,10.3,0,15.5,0c2.1,0,3.5,1.3,3.5,3.4
		c0,3.1,0,6.3,0,9.4c0,0.7-0.4,1.2-1,1.2c-0.6,0-1.1-0.5-1.1-1.2c0-0.1,0-0.2,0-0.3c0-3,0-5.9,0-8.9c0-0.1,0-0.2,0-0.3
		c0-0.8-0.4-1.2-1.2-1.2c-0.1,0-0.1,0-0.2,0c-4.7,0-9.5,0-14.2,0c-0.2,0-0.4,0-0.5,0c0,1,0.1,1.9,0.1,2.8c1.5,0.1,2.5,0.8,3,2.2
		c0.1,0.3,0.2,0.7,0.2,1c0,2.7,0,5.5,0,8.2c0,1.9-1.4,3.3-3.3,3.3c-2.5,0-5,0-7.5,0c-0.2,0-0.3,0-0.5,0c0,0.2,0,0.3,0,0.4
		c0,4.1,0,8.2,0,12.3c0,0.9,0.4,1.3,1.3,1.3c5.4,0,10.7,0,16.1,0c0.1,0,0.2,0,0.4,0c-0.1-0.2-0.2-0.2-0.3-0.3c-0.7-1-1.1-2-1.1-3.3
		c0-3.5,0-6.9,0-10.4c0-0.7,0.2-1.1,1-1.3c2.5-0.7,5-1.5,7.4-2.2c0.3-0.1,0.7-0.1,0.9,0c2.5,0.7,5,1.3,7.5,2
		c0.5,0.1,0.7,0.4,0.9,0.8c0,3.9,0,7.8,0,11.8c0,0-0.1,0.1-0.1,0.1c-0.3,1.9-1.4,3.2-3.1,4.1C40.8,43,39,44,37.1,45
		C37,45,36.8,45,36.6,45z M14.1,24.6c1.8,0,3.6,0,5.5,0c0.9,0,1.3-0.4,1.3-1.3c0-2.7,0-5.3,0-8c0-0.9-0.4-1.3-1.3-1.3
		c-3.7,0-7.3,0-11,0c-0.9,0-1.3,0.4-1.3,1.3c0,2.7,0,5.3,0,8c0,0.9,0.4,1.2,1.3,1.2C10.5,24.6,12.3,24.6,14.1,24.6z M17.7,12
		c0-0.6,0-1.1,0-1.7c-0.1-1.5-1.2-2.7-2.6-3.1c-1.4-0.4-2.9,0.1-3.8,1.3c-0.8,1-0.7,2.2-0.7,3.5C12.9,12,15.3,12,17.7,12z
		 M36.1,34.1c-0.7-0.5-1.4-1-2.1-1.5c-0.5-0.3-1-0.3-1.3,0c-0.6,0.5-0.5,1.2,0.1,1.7c0.9,0.7,1.7,1.3,2.6,1.9
		c0.7,0.5,1.1,0.5,1.8-0.1c1.3-1.3,2.6-2.6,3.9-3.9c0,0,0.1-0.1,0.1-0.1c0.5-0.5,0.5-1.1,0.1-1.6c-0.4-0.4-1.1-0.4-1.6,0.1
		c-0.2,0.2-0.4,0.4-0.6,0.6C38,32.2,37.1,33.1,36.1,34.1z"/>
	<path d="M19.8,31c-1.6,0-3.2,0-4.8,0c-0.8,0-1.3-0.4-1.3-1.1c0-0.6,0.5-1,1.3-1c3.2,0,6.4,0,9.6,0c0.9,0,1.4,0.8,1.1,1.5
		c-0.2,0.4-0.6,0.6-1.1,0.6C23,30.9,21.4,31,19.8,31z"/>
	<path d="M19.9,33.1c1.6,0,3.2,0,4.8,0c0.8,0,1.3,0.4,1.2,1.1c0,0.6-0.5,1-1.2,1c-3.2,0-6.4,0-9.6,0c-0.7,0-1.2-0.4-1.2-1
		c0-0.6,0.5-1.1,1.3-1.1C16.6,33.1,18.2,33.1,19.9,33.1z"/>
	<path d="M29.4,18.3c-1,0-2,0-3,0c-0.7,0-1.2-0.4-1.2-1.1c0-0.6,0.5-1,1.2-1c2,0,4.1,0,6.1,0c0.7,0,1.2,0.4,1.2,1
		c0,0.6-0.5,1.1-1.2,1.1C31.5,18.3,30.4,18.3,29.4,18.3z"/>
	<path d="M29.4,22.5c-1,0-2,0-3,0c-0.7,0-1.2-0.4-1.2-1.1c0-0.6,0.5-1,1.2-1c2.1,0,4.1,0,6.2,0c0.7,0,1.2,0.4,1.2,1
		c0,0.6-0.5,1.1-1.2,1.1C31.5,22.5,30.4,22.5,29.4,22.5z"/>
	<path d="M13,21.3c0-0.1,0-0.2,0-0.3c0-0.5-0.1-0.9-0.5-1.3c-1-0.8-0.9-2.3,0-3.2c0.9-0.9,2.4-0.8,3.3,0.1c0.9,0.9,0.8,2.4-0.2,3.2
		c-0.3,0.3-0.4,0.5-0.4,0.9c0,0.5,0,1,0,1.4c0,0.6-0.5,1.1-1.1,1.1c-0.6,0-1-0.5-1-1.1C13,21.8,13,21.6,13,21.3z"/>
</g>
</svg>
